<?xml version="1.0" encoding="utf-8"?>
<!-- Generator: Adobe Illustrator 19.0.1, SVG Export Plug-In . SVG Version: 6.00 Build 0)  -->
<svg version="1.1" id="Layer_1" xmlns="http://www.w3.org/2000/svg" xmlns:xlink="http://www.w3.org/1999/xlink" x="0px" y="0px"
	 viewBox="0 0 102.6 100.9" style="enable-background:new 0 0 102.6 100.9;" xml:space="preserve">
<style type="text/css">
	.st0{fill:none;stroke:#228FC7;stroke-width:2;stroke-linecap:round;stroke-linejoin:round;stroke-miterlimit:10;}
	.st1{fill:none;stroke:#228FC7;stroke-width:2;stroke-linecap:square;stroke-miterlimit:10;}
	.st2{fill:none;stroke:#228FC7;stroke-width:2;stroke-miterlimit:10;}
</style>
<g>
	<g>
		<circle class="st0" cx="10.5" cy="46.9" r="6"/>
		<path class="st0" d="M14.5,88.2C7.1,88.2,1,82.2,1,74.7c0-7.5,6.1-13.5,13.5-13.5"/>
		<path class="st0" d="M5.1,65.2c-0.2-1.4-0.3-2.7-0.3-4.2c0-3.3,0.6-6.5,1.6-9.5"/>
		<path class="st0" d="M27.7,88.2c0,2.4-1.9,4.3-4.3,4.3h-4.6c-2.4,0-4.3-1.9-4.3-4.3V61.1c0-2.4,1.9-4.3,4.3-4.3h4.6
			c2.4,0,4.3,1.9,4.3,4.3V88.2z"/>
		<path class="st0" d="M15.3,44c0-19.9,16.1-36,36-36"/>
		<path class="st0" d="M8.4,41.4C9.7,18.9,28.4,1,51.3,1"/>
	</g>
	<circle class="st0" cx="92.2" cy="46.9" r="6"/>
	<path class="st0" d="M88.1,88.2c7.5,0,13.5-6.1,13.5-13.5c0-7.5-6.1-13.5-13.5-13.5"/>
	<path class="st0" d="M97.5,65.2c0.2-1.4,0.3-2.7,0.3-4.2c0-3.3-0.6-6.5-1.6-9.5"/>
	<path class="st0" d="M75,88.2c0,2.4,1.9,4.3,4.3,4.3h4.6c2.4,0,4.3-1.9,4.3-4.3V61.1c0-2.4-1.9-4.3-4.3-4.3h-4.6
		c-2.4,0-4.3,1.9-4.3,4.3V88.2z"/>
	<path class="st0" d="M87.4,44c0-19.9-16.1-36-36-36"/>
	<path class="st0" d="M94.2,41.4C92.9,18.9,74.2,1,51.3,1"/>
	<path class="st0" d="M88.1,88.2v7.5c0,2.4-1.9,4.3-4.3,4.3h-30c-2.4,0-4.3-1.9-4.3-4.3c0-2.4,1.9-4.3,4.3-4.3h6.4
		c2.4,0,4.3,1.9,4.3,4.3c0,2.4-1.9,4.3-4.3,4.3"/>
</g>
</svg>
