<?xml version="1.0" encoding="utf-8"?>
<!-- Generator: Adobe Illustrator 19.0.1, SVG Export Plug-In . SVG Version: 6.00 Build 0)  -->
<svg version="1.1" id="Layer_1" xmlns="http://www.w3.org/2000/svg" xmlns:xlink="http://www.w3.org/1999/xlink" x="0px" y="0px"
	 viewBox="0 0 107.3 93.4" style="enable-background:new 0 0 107.3 93.4;" xml:space="preserve">
<style type="text/css">
	.st0{fill:none;stroke:#228FC7;stroke-width:2;stroke-linecap:round;stroke-linejoin:round;stroke-miterlimit:10;}
	.st1{fill:none;stroke:#228FC7;stroke-width:2;stroke-linecap:square;stroke-miterlimit:10;}
	.st2{fill:none;stroke:#228FC7;stroke-width:2;stroke-miterlimit:10;}
</style>
<g>
	<path class="st0" d="M101.8,44.4c0,3.6-2.9,6.5-6.5,6.5H79.9c-3.6,0-6.5-2.9-6.5-6.5l0,0c0-3.6,2.9-6.5,6.5-6.5h15.5
		C98.9,37.9,101.8,40.8,101.8,44.4L101.8,44.4z"/>
	<path class="st0" d="M97.4,83.2c0,3.6-2.9,6.5-6.5,6.5H79.9c-3.6,0-6.5-2.9-6.5-6.5l0,0c0-3.6,2.9-6.5,6.5-6.5h11.1
		C94.5,76.7,97.4,79.6,97.4,83.2L97.4,83.2z"/>
	<path class="st0" d="M101.8,70.3c0,3.6-2.9,6.5-6.5,6.5H77.6c-3.6,0-6.5-2.9-6.5-6.5l0,0c0-3.6,2.9-6.5,6.5-6.5h17.7
		C98.9,63.8,101.8,66.7,101.8,70.3L101.8,70.3z"/>
	<path class="st0" d="M106.3,57.3c0,3.6-2.9,6.5-6.5,6.5H75.4c-3.6,0-6.5-2.9-6.5-6.5l0,0c0-3.6,2.9-6.5,6.5-6.5h24.4
		C103.4,50.9,106.3,53.8,106.3,57.3L106.3,57.3z"/>
	<path class="st0" d="M79.9,37.9H65.3c0,0,9.6-20.3,9.6-28.4c0-8.1-3.7-8.5-7-8.5c-3.3,0-4.8,10-9.6,17c-4.8,7-13.7,19.9-25.1,19.9
		c-8.5,0-32.1,0-32.1,0"/>
	<rect x="7.6" y="37.9" class="st0" width="24.6" height="54.5"/>
	<line class="st0" x1="1" y1="92.4" x2="32.2" y2="92.4"/>
	<line class="st0" x1="18.5" y1="82.4" x2="18.5" y2="87"/>
	<line class="st0" x1="25.2" y1="82.4" x2="25.2" y2="87"/>
	<path class="st0" d="M37.7,87.4c3.1,0,5.9,0.8,8.4,2.3h44.9"/>
</g>
</svg>
