<?xml version="1.0" encoding="utf-8"?>
<!-- Generator: Adobe Illustrator 19.0.1, SVG Export Plug-In . SVG Version: 6.00 Build 0)  -->
<svg version="1.1" id="Layer_1" xmlns="http://www.w3.org/2000/svg" xmlns:xlink="http://www.w3.org/1999/xlink" x="0px" y="0px"
	 viewBox="0 0 49.3 51.5" style="enable-background:new 0 0 49.3 51.5;" xml:space="preserve">
<style type="text/css">
	.st0{fill:none;stroke:#228FC7;stroke-width:2;stroke-linecap:round;stroke-linejoin:round;stroke-miterlimit:10;}
	.st1{fill:none;stroke:#228FC7;stroke-width:2;stroke-linecap:square;stroke-miterlimit:10;}
	.st2{fill:none;stroke:#228FC7;stroke-width:2;stroke-miterlimit:10;}
</style>
<g>
	<path class="st2" d="M40.4,25.8c-11.1,0-20.4-7.4-23.3-17.6"/>
	<path class="st2" d="M38.5,25.8v3.6c0,7.6-6.2,13.8-13.8,13.8l0,0c-7.6,0-13.8-6.2-13.8-13.8v-4.4c0-5.5,3.2-10.2,7.8-12.4"/>
	<path class="st2" d="M30.1,48.4c0,1.1-0.9,2-2,2h-4.2c-1.1,0-2-0.9-2-2l0,0c0-1.1,0.9-2,2-2h4.2C29.2,46.4,30.1,47.3,30.1,48.4
		L30.1,48.4z"/>
	<g>
		<path class="st2" d="M43,20.9h3l0,0c1.3,0,2.3,1,2.3,2.3v6.6c0,1.3-1,2.3-2.3,2.3l0,0h-3"/>
		<path class="st2" d="M6.3,20.9h-3l0,0C2,20.9,1,22,1,23.2v6.6c0,1.3,1,2.3,2.3,2.3l0,0h3v-14C6.3,8.6,13.9,1,23.4,1h2.6
			C35.4,1,43,8.6,43,18.1v13.8c0,8-5.5,14.7-12.9,16.6"/>
	</g>
</g>
</svg>
