<?xml version="1.0" encoding="utf-8"?>
<!-- Generator: Adobe Illustrator 19.0.1, SVG Export Plug-In . SVG Version: 6.00 Build 0)  -->
<svg version="1.1" id="Layer_1" xmlns="http://www.w3.org/2000/svg" xmlns:xlink="http://www.w3.org/1999/xlink" x="0px" y="0px"
	 viewBox="0 0 50.3 46.5" style="enable-background:new 0 0 50.3 46.5;" xml:space="preserve">
<style type="text/css">
	.st0{fill:none;stroke:#228FC7;stroke-width:2;stroke-linecap:round;stroke-linejoin:round;stroke-miterlimit:10;}
	.st1{fill:none;stroke:#228FC7;stroke-width:2;stroke-linecap:square;stroke-miterlimit:10;}
	.st2{fill:none;stroke:#228FC7;stroke-width:2;stroke-miterlimit:10;}
</style>
<g>
	<path class="st1" d="M49.3,44.6c0,0.5-0.4,0.9-0.9,0.9H1.9c-0.5,0-0.9-0.4-0.9-0.9v-35c0-0.5,0.4-0.9,0.9-0.9h46.5
		c0.5,0,0.9,0.4,0.9,0.9V44.6z"/>
	<path class="st1" d="M34.7,23.4h-5.9v-5.9c0-0.5-0.4-0.9-0.9-0.9h-5.6c-0.5,0-0.9,0.4-0.9,0.9v5.9h-5.9c-0.5,0-0.9,0.4-0.9,0.9v5.6
		c0,0.5,0.4,0.9,0.9,0.9h5.9v5.9c0,0.5,0.4,0.9,0.9,0.9H28c0.5,0,0.9-0.4,0.9-0.9v-5.9h5.9c0.5,0,0.9-0.4,0.9-0.9v-5.6
		C35.6,23.8,35.2,23.4,34.7,23.4z"/>
	<path class="st1" d="M17,8.7v-5C17,2.2,18.3,1,19.7,1h10.8c1.5,0,2.7,1.2,2.7,2.7v5"/>
</g>
</svg>
