<?xml version="1.0" encoding="utf-8"?>
<!-- Generator: Adobe Illustrator 19.0.1, SVG Export Plug-In . SVG Version: 6.00 Build 0)  -->
<svg version="1.1" id="Layer_1" xmlns="http://www.w3.org/2000/svg" xmlns:xlink="http://www.w3.org/1999/xlink" x="0px" y="0px"
	 viewBox="0 0 49.9 45.3" style="enable-background:new 0 0 49.9 45.3;" xml:space="preserve">
<style type="text/css">
	.st0{fill:none;stroke:#228FC7;stroke-width:2;stroke-linecap:round;stroke-linejoin:round;stroke-miterlimit:10;}
	.st1{fill:none;stroke:#228FC7;stroke-width:2;stroke-linecap:square;stroke-miterlimit:10;}
	.st2{fill:none;stroke:#228FC7;stroke-width:2;stroke-miterlimit:10;}
</style>
<g>
	<polyline class="st2" points="29.2,24.5 31.9,27.2 37,22.2 	"/>
	<polyline class="st2" points="44.3,37.6 44.3,44.3 1,44.3 1,1 44.3,1 44.3,12.2 	"/>
	<line class="st2" x1="1" y1="9.3" x2="44.3" y2="9.3"/>
	<path class="st2" d="M45.4,15.2H20.7c-1.9,0-3.5,1.6-3.5,3.5v12.4c0,1.9,1.6,3.5,3.5,3.5h1.7v4.2l7.4-4.2h15.5
		c1.9,0,3.5-1.6,3.5-3.5V18.7C48.9,16.7,47.4,15.2,45.4,15.2z"/>
	<circle class="st2" cx="5.4" cy="5.1" r="0.4"/>
	<circle class="st2" cx="9.6" cy="5.1" r="0.4"/>
	<circle class="st2" cx="13.7" cy="5.1" r="0.4"/>
</g>
</svg>
