<?xml version="1.0" encoding="utf-8"?>
<!-- Generator: Adobe Illustrator 19.0.1, SVG Export Plug-In . SVG Version: 6.00 Build 0)  -->
<svg version="1.1" id="Layer_1" xmlns="http://www.w3.org/2000/svg" xmlns:xlink="http://www.w3.org/1999/xlink" x="0px" y="0px"
	 viewBox="0 0 69 24.2" style="enable-background:new 0 0 69 24.2;" xml:space="preserve">
<style type="text/css">
	.st0{fill:none;stroke:#228FC7;stroke-width:2;stroke-linecap:round;stroke-linejoin:round;stroke-miterlimit:10;}
	.st1{fill:none;stroke:#228FC7;stroke-width:2;stroke-linecap:square;stroke-miterlimit:10;}
	.st2{fill:none;stroke:#228FC7;stroke-width:2;stroke-miterlimit:10;}
</style>
<g>
	<g>
		<circle class="st0" cx="-422.6" cy="-142.8" r="6"/>
		<path class="st0" d="M-418.6-101.5c-7.5,0-13.5-6.1-13.5-13.5c0-7.5,6.1-13.5,13.5-13.5"/>
		<path class="st0" d="M-428-124.4c-0.2-1.4-0.3-2.7-0.3-4.2c0-3.3,0.6-6.5,1.6-9.5"/>
		<path class="st0" d="M-405.4-101.5c0,2.4-1.9,4.3-4.3,4.3h-4.6c-2.4,0-4.3-1.9-4.3-4.3v-27.1c0-2.4,1.9-4.3,4.3-4.3h4.6
			c2.4,0,4.3,1.9,4.3,4.3V-101.5z"/>
		<path class="st0" d="M-417.8-145.7c0-19.9,16.1-36,36-36"/>
		<path class="st0" d="M-424.6-148.3c1.3-22.6,20-40.4,42.9-40.4"/>
	</g>
	<circle class="st0" cx="-340.9" cy="-142.8" r="6"/>
	<path class="st0" d="M-345-101.5c7.5,0,13.5-6.1,13.5-13.5c0-7.5-6.1-13.5-13.5-13.5"/>
	<path class="st0" d="M-335.6-124.4c0.2-1.4,0.3-2.7,0.3-4.2c0-3.3-0.6-6.5-1.6-9.5"/>
	<path class="st0" d="M-358.1-101.5c0,2.4,1.9,4.3,4.3,4.3h4.6c2.4,0,4.3-1.9,4.3-4.3v-27.1c0-2.4-1.9-4.3-4.3-4.3h-4.6
		c-2.4,0-4.3,1.9-4.3,4.3V-101.5z"/>
	<path class="st0" d="M-345.7-145.7c0-19.9-16.1-36-36-36"/>
	<path class="st0" d="M-338.9-148.3c-1.3-22.6-20-40.4-42.9-40.4"/>
	<path class="st0" d="M-345-101.5v7.5c0,2.4-1.9,4.3-4.3,4.3h-30c-2.4,0-4.3-1.9-4.3-4.3c0-2.4,1.9-4.3,4.3-4.3h6.4
		c2.4,0,4.3,1.9,4.3,4.3c0,2.4-1.9,4.3-4.3,4.3"/>
</g>
<g>
	<g>
		<polyline class="st0" points="-254.5,-105.2 -254.5,-83 -240.2,-83 -240.2,-96.8 		"/>
		<polyline class="st0" points="-197,-105.2 -197,-83 -211.3,-83 -211.3,-96.8 		"/>
		<path class="st0" d="M-211.3-89.7"/>
		<path class="st0" d="M-240.2-89.7"/>
	</g>
	<path class="st0" d="M-225.7-154.2c8.5,0,16.3,2.3,22.5,6"/>
	<path class="st0" d="M-169.6-137c0,5.9-4.8,10.7-10.7,10.7"/>
	<path class="st0" d="M-243.2-139.1c0,4-3.2,7.2-7.2,7.2c-4,0-7.2-3.2-7.2-7.2"/>
	<path class="st0" d="M-222-154.2c-1.1-1.5-1.8-3.3-1.8-5.3c0-4.9,4-8.8,8.8-8.8c4.9,0,8.8,4,8.8,8.8c0,3.5-2,6.5-5,7.9"/>
	<path class="st0" d="M-263.9-117.6h-14.6c-1.3,0-2.4-1.1-2.4-2.4v-12.5c0-1.3,1.1-2.4,2.4-2.4h8.7v-0.2c2-6.1,6.1-11.5,11.6-15.8
		l0-16.4l12.4,9.5c6.1-2.3,12.9-3.6,20.1-3.6c0.7,0,1.5,0,2.2,0"/>
	<g>
		<line class="st0" x1="-211.1" y1="-195.5" x2="-211.1" y2="-185.1"/>
		<line class="st0" x1="-211.1" y1="-178.8" x2="-211.1" y2="-173.8"/>
		<line class="st0" x1="-218.8" y1="-187.8" x2="-218.8" y2="-173.8"/>
	</g>
	<path class="st0" d="M-254.6-99.3c-7.3-4.6-12.7-10.9-15.2-18.1"/>
	<path class="st0" d="M-211.3-93.2c-4.5,1.2-9.4,1.8-14.4,1.8c-5.1,0-9.9-0.6-14.5-1.8"/>
	<path class="st0" d="M-205.9-157.8c15.2,5.7,25.7,17.6,25.7,31.5c0,10.9-6.5,20.7-16.7,27.1"/>
	<line class="st0" x1="-273.5" y1="-83" x2="-177.9" y2="-83"/>
</g>
<g>
	<path class="st0" d="M-22-141.5c0,3.6-2.9,6.5-6.5,6.5H-44c-3.6,0-6.5-2.9-6.5-6.5l0,0c0-3.6,2.9-6.5,6.5-6.5h15.5
		C-24.9-148-22-145.1-22-141.5L-22-141.5z"/>
	<path class="st0" d="M-26.4-102.8c0,3.6-2.9,6.5-6.5,6.5H-44c-3.6,0-6.5-2.9-6.5-6.5l0,0c0-3.6,2.9-6.5,6.5-6.5h11.1
		C-29.3-109.2-26.4-106.3-26.4-102.8L-26.4-102.8z"/>
	<path class="st0" d="M-22-115.7c0,3.6-2.9,6.5-6.5,6.5h-17.7c-3.6,0-6.5-2.9-6.5-6.5l0,0c0-3.6,2.9-6.5,6.5-6.5h17.7
		C-24.9-122.1-22-119.3-22-115.7L-22-115.7z"/>
	<path class="st0" d="M-17.6-128.6c0,3.6-2.9,6.5-6.5,6.5h-24.4c-3.6,0-6.5-2.9-6.5-6.5l0,0c0-3.6,2.9-6.5,6.5-6.5H-24
		C-20.5-135.1-17.6-132.2-17.6-128.6L-17.6-128.6z"/>
	<path class="st0" d="M-44-148h-14.6c0,0,9.6-20.3,9.6-28.4c0-8.1-3.7-8.5-7-8.5s-4.8,10-9.6,17c-4.8,7-13.7,19.9-25.1,19.9
		c-8.5,0-32.1,0-32.1,0"/>
	<rect x="-116.2" y="-148" class="st0" width="24.6" height="54.5"/>
	<line class="st0" x1="-122.8" y1="-93.5" x2="-91.6" y2="-93.5"/>
	<line class="st0" x1="-105.3" y1="-103.5" x2="-105.3" y2="-98.9"/>
	<line class="st0" x1="-98.6" y1="-103.5" x2="-98.6" y2="-98.9"/>
	<path class="st0" d="M-86.1-98.6c3.1,0,5.9,0.8,8.4,2.3h44.9"/>
</g>
<g>
	<g>
		<path class="st0" d="M-336-237.7c2.4,0,4.3-1.9,4.3-4.3v-59.6c0-2.4-1.9-4.3-4.3-4.3h-91.6c-2.4,0-4.3,1.9-4.3,4.3v59.6
			c0,2.4,1.9,4.3,4.3,4.3h37.8"/>
		<line class="st0" x1="-422.2" y1="-305.8" x2="-422.2" y2="-237.7"/>
		<line class="st0" x1="-343.9" y1="-305.8" x2="-343.9" y2="-258.6"/>
		<circle class="st0" cx="-338" cy="-271.8" r="2.5"/>
		<path class="st0" d="M-365.6-247v-8.7c0-2.1,1.7-3.8,3.8-3.8l0,0c2.1,0,3.8,1.7,3.8,3.8v10.9"/>
		<path class="st0" d="M-358-244.8v-8.7c0-2.1,1.7-3.8,3.8-3.8l0,0c2.1,0,3.8,1.7,3.8,3.8v8.7"/>
		<path class="st0" d="M-350.3-244.8v-4.2c0-2.1,1.7-3.8,3.8-3.8l0,0c2.1,0,3.8,1.7,3.8,3.8v10.9c0,5.2-1.1,10.1-3.2,14.5v10.6"/>
		<path class="st0" d="M-365.6-249.2v-24.3c0-2.1-1.7-3.8-3.8-3.8l0,0c-2.1,0-3.8,1.7-3.8,3.8v34.4"/>
		<polyline class="st0" points="-375,-205.3 -375,-212.9 -341.6,-212.9 -341.6,-205.3 		"/>
		<path class="st0" d="M-370.7-212.9v-7.8c-5.3-1.7-9.1-6-10.9-11.2l-4.7-16.3c-0.6-1.8,0.3-3.7,2.1-4.3c1.8-0.6,3.7,0.3,4.3,2.1
			c0,0,0.9,3,3.5,9.2c0.5,1.2,1.8,2.1,3.2,2.1"/>
	</g>
	<path class="st0" d="M-377.6-273.3c0-4.5,3.7-8.2,8.2-8.2c4.5,0,8.2,3.7,8.2,8.2"/>
	<path class="st0" d="M-378.2-264.5c-4.9-4.9-4.9-12.8,0-17.6c4.9-4.9,12.7-4.9,17.6,0c4.9,4.9,4.9,12.8,0,17.6"/>
	<path class="st0" d="M-381.2-261.5c-6.5-6.5-6.5-17.1,0-23.6c6.5-6.5,17.1-6.5,23.6,0c4.8,4.8,6.1,11.7,3.8,17.7"/>
</g>
<g>
	<path class="st1" d="M-371.6-633.8c0,0.5-0.4,0.9-0.9,0.9H-419c-0.5,0-0.9-0.4-0.9-0.9v-35c0-0.5,0.4-0.9,0.9-0.9h46.5
		c0.5,0,0.9,0.4,0.9,0.9V-633.8z"/>
	<path class="st1" d="M-386.1-655h-5.9v-5.9c0-0.5-0.4-0.9-0.9-0.9h-5.6c-0.5,0-0.9,0.4-0.9,0.9v5.9h-5.9c-0.5,0-0.9,0.4-0.9,0.9
		v5.6c0,0.5,0.4,0.9,0.9,0.9h5.9v5.9c0,0.5,0.4,0.9,0.9,0.9h5.6c0.5,0,0.9-0.4,0.9-0.9v-5.9h5.9c0.5,0,0.9-0.4,0.9-0.9v-5.6
		C-385.2-654.6-385.6-655-386.1-655z"/>
	<path class="st1" d="M-403.8-669.8v-5c0-1.5,1.2-2.7,2.7-2.7h10.8c1.5,0,2.7,1.2,2.7,2.7v5"/>
</g>
<g>
	<g>
		<path class="st1" d="M-288.1-638.9c0-1.5,1.2-2.7,2.7-2.7h9.8c1.5,0,2.7-1.2,2.7-2.7l0,0c0-1.5-1.2-2.7-2.7-2.7h-8.6l-8.6-3.3
			h-7.9"/>
		<polyline class="st1" points="-311.6,-651.8 -300.7,-651.8 -300.7,-634.8 -311.6,-634.8 		"/>
		<path class="st1" d="M-274.2-641.9l12.6-4.7c1.3-0.5,2.7,0.2,3.1,1.5c0.5,1.3-0.2,2.7-1.5,3.1l-17,9.1c-2.5,1.3-5.5,1.5-8.1,0.5
			l-11-4.1h-4.6"/>
		<g>
			<line class="st1" x1="-308.1" y1="-639.7" x2="-308.1" y2="-638.4"/>
			<line class="st1" x1="-304.2" y1="-639.7" x2="-304.2" y2="-638.4"/>
		</g>
	</g>
	<path class="st1" d="M-271.7-676.4c-2.9-2.9-7.7-2.9-10.7,0l-1.7,1.7l-1.7-1.7c-2.9-2.9-7.7-2.9-10.7,0c-2.9,2.9-2.9,7.7,0,10.7
		l12.4,12.4l12.4-12.4C-268.8-668.7-268.8-673.4-271.7-676.4z"/>
</g>
<g>
	<polygon class="st1" points="-174.2,-648.6 -202.2,-663.1 -174.2,-677.5 -146.2,-663.1 	"/>
	<polyline class="st1" points="-158,-656.8 -158,-632.9 -190.3,-632.9 -190.3,-656.8 	"/>
	<line class="st1" x1="-197.4" y1="-660.4" x2="-197.4" y2="-640.9"/>
</g>
<g>
	<path class="st1" d="M-45.2-634.3c0,1.7-1.3,3-3,3h-30.3c-1.7,0-3-1.3-3-3V-676c0-1.7,1.3-3,3-3h30.3c1.7,0,3,1.3,3,3V-634.3z"/>
	<rect x="-76.5" y="-674" class="st1" width="26.3" height="6.3"/>
	<polyline class="st1" points="-76.5,-662.7 -76.5,-656.7 -70.5,-656.7 	"/>
	<polyline class="st1" points="-66.4,-662.7 -66.4,-656.7 -60.4,-656.7 	"/>
	<polyline class="st1" points="-56.2,-662.7 -56.2,-656.7 -50.2,-656.7 	"/>
	<polyline class="st1" points="-76.5,-652.5 -76.5,-646.5 -70.5,-646.5 	"/>
	<polyline class="st1" points="-66.4,-652.5 -66.4,-646.5 -60.4,-646.5 	"/>
	<polyline class="st1" points="-76.5,-642.3 -76.5,-636.3 -70.5,-636.3 	"/>
	<polyline class="st1" points="-66.4,-642.3 -66.4,-636.3 -60.4,-636.3 	"/>
	<polyline class="st1" points="-56.2,-652.5 -56.2,-636.3 -50.2,-636.3 	"/>
</g>
<g>
	<g>
		<line class="st2" x1="30.9" y1="-631.6" x2="30.9" y2="-653.1"/>
		<line class="st2" x1="65.6" y1="-653.1" x2="65.6" y2="-631.6"/>
	</g>
	<polygon class="st2" points="48.3,-678.7 23.2,-655.9 28.1,-651 48.3,-669.5 68.5,-651 73.4,-655.9 	"/>
	<polyline class="st2" points="43,-632.8 43,-647.7 53.6,-647.7 53.6,-632.8 	"/>
	<line class="st2" x1="71.3" y1="-631.6" x2="25.2" y2="-631.6"/>
</g>
<g>
	<path class="st1" d="M-154.3-566.2c-5.2,0.7-8,3.1-8,6h8"/>
	<path class="st1" d="M-174-585.7h14.6c0.8,0,1.5,0.4,1.9,1.1l6.2,10.4h6.1v3l-3.4,2.1c-0.7,0.4-1.1,1.1-1.1,1.9v14.2v2.6
		c0,1.3-1.1,2.4-2.4,2.4h-4.4c-1.3,0-2.4-1.1-2.4-2.4v-2.6"/>
	<rect x="-179.8" y="-565.6" class="st1" width="12.6" height="5.3"/>
	<path class="st1" d="M-192.7-566.2c5.2,0.7,8,3.1,8,6h-8"/>
	<polyline class="st1" points="-192.7,-553.2 -174,-553.2 -154.3,-553.2 	"/>
	<polygon class="st1" points="-190.6,-574.3 -186.4,-581.3 -160.6,-581.3 -156.4,-574.3 	"/>
	<path class="st1" d="M-174-585.7h-13.7c-0.8,0-1.5,0.4-1.9,1.1l-6.2,10.4h-6.1v3l3.4,2.1c0.7,0.4,1.1,1.1,1.1,1.9v14.2v2.6
		c0,1.3,1.1,2.4,2.4,2.4h4.4c1.3,0,2.4-1.1,2.4-2.4v-2.6"/>
</g>
<g>
	<polyline class="st2" points="-391.1,-565.1 -388.3,-562.4 -383.3,-567.4 	"/>
	<polyline class="st2" points="-375.9,-552 -375.9,-545.3 -419.2,-545.3 -419.2,-588.6 -375.9,-588.6 -375.9,-577.4 	"/>
	<line class="st2" x1="-419.2" y1="-580.3" x2="-375.9" y2="-580.3"/>
	<path class="st2" d="M-413.4-585.2"/>
	<path class="st2" d="M-374.8-574.4h-24.7c-1.9,0-3.5,1.6-3.5,3.5v12.4c0,1.9,1.6,3.5,3.5,3.5h1.7v4.2l7.4-4.2h15.5
		c1.9,0,3.5-1.6,3.5-3.5v-12.4C-371.3-572.9-372.9-574.4-374.8-574.4z"/>
	<circle class="st2" cx="-414.8" cy="-584.5" r="0.4"/>
	<circle class="st2" cx="-410.7" cy="-584.5" r="0.4"/>
	<circle class="st2" cx="-406.5" cy="-584.5" r="0.4"/>
</g>
<g>
	<g>
		<path class="st1" d="M-260.2-545.6c0,0.5-0.4,0.9-0.9,0.9h-46.5c-0.5,0-0.9-0.4-0.9-0.9v-35c0-0.5,0.4-0.9,0.9-0.9h46.5
			c0.5,0,0.9,0.4,0.9,0.9V-545.6z"/>
		<path class="st1" d="M-292.5-581.5v-5c0-1.5,1.2-2.7,2.7-2.7h10.8c1.5,0,2.7,1.2,2.7,2.7v5"/>
	</g>
	<g>
		<line class="st1" x1="-288.5" y1="-563.3" x2="-307.6" y2="-563.3"/>
		<rect x="-288.5" y="-566.1" class="st1" width="8.2" height="5.6"/>
		<line class="st1" x1="-260.2" y1="-563.3" x2="-280.3" y2="-563.3"/>
	</g>
</g>
<g>
	<line class="st2" x1="-44.6" y1="-547" x2="-44.6" y2="-569"/>
	<circle class="st2" cx="-44.6" cy="-564.9" r="9.9"/>
	<g>
		<g>
			<line class="st2" x1="-84" y1="-547" x2="-84" y2="-565.2"/>
			<line class="st2" x1="-54.6" y1="-565.2" x2="-54.6" y2="-547"/>
		</g>
		<polyline class="st2" points="-73.8,-548 -73.8,-560.6 -64.8,-560.6 -64.8,-548 		"/>
		<line class="st2" x1="-39.5" y1="-547" x2="-88.8" y2="-547"/>
		<polyline class="st2" points="-52.1,-571.3 -69.3,-586.9 -90.5,-567.5 -86.4,-563.4 -69.3,-579.1 -54.7,-565.8 		"/>
	</g>
	<line class="st2" x1="-44.6" y1="-559.2" x2="-49.2" y2="-563.8"/>
	<line class="st2" x1="-44.6" y1="-563.5" x2="-39.9" y2="-568.1"/>
</g>
<g>
	<path class="st2" d="M64-566.9c-11.1,0-20.4-7.4-23.3-17.6"/>
	<path class="st2" d="M62.1-566.9v3.6c0,7.6-6.2,13.8-13.8,13.8l0,0c-7.6,0-13.8-6.2-13.8-13.8v-4.4c0-5.5,3.2-10.2,7.8-12.4"/>
	<path class="st2" d="M53.7-544.3c0,1.1-0.9,2-2,2h-4.2c-1.1,0-2-0.9-2-2l0,0c0-1.1,0.9-2,2-2h4.2C52.8-546.3,53.7-545.4,53.7-544.3
		L53.7-544.3z"/>
	<g>
		<path class="st2" d="M66.6-571.7h3l0,0c1.3,0,2.3,1,2.3,2.3v6.6c0,1.3-1,2.3-2.3,2.3l0,0h-3"/>
		<path class="st2" d="M29.9-571.7h-3l0,0c-1.3,0-2.3,1-2.3,2.3v6.6c0,1.3,1,2.3,2.3,2.3l0,0h3v-14c0-9.4,7.7-17.1,17.1-17.1h2.6
			c9.4,0,17.1,7.6,17.1,17.1v13.8c0,8-5.5,14.7-12.9,16.6"/>
	</g>
</g>
<g>
	<g>
		<polygon class="st0" points="-356,-0.7 -363.9,-8.5 -385.7,13.3 -397.5,1.6 -405.3,9.4 -385.7,29 -377.9,21.2 -377.9,21.2 		"/>
		<circle class="st0" cx="-380.7" cy="10.2" r="47.3"/>
	</g>
	<line class="st0" x1="-380.7" y1="-31.5" x2="-380.7" y2="-27.3"/>
	<line class="st0" x1="-380.7" y1="47.8" x2="-380.7" y2="52"/>
	<line class="st0" x1="-338.9" y1="10.2" x2="-343.1" y2="10.2"/>
	<line class="st0" x1="-418.2" y1="10.2" x2="-422.4" y2="10.2"/>
</g>
<g>
	<g>
		<polygon class="st0" points="-200.5,-13.8 -177.4,-13.8 -200.5,-36.8 		"/>
		<polyline class="st0" points="-200.5,-36.9 -253.7,-36.9 -253.7,61.3 -177.4,61.3 -177.4,-13.8 		"/>
	</g>
	<line class="st0" x1="-240.8" y1="-13.8" x2="-213.6" y2="-13.8"/>
	<line class="st0" x1="-240.9" y1="-0.8" x2="-190.3" y2="-0.8"/>
	<line class="st0" x1="-240.9" y1="12.2" x2="-190.3" y2="12.2"/>
	<line class="st0" x1="-240.9" y1="25.2" x2="-190.3" y2="25.2"/>
	<line class="st0" x1="-240.9" y1="38.3" x2="-190.3" y2="38.3"/>
</g>
<g>
	<polyline class="st2" points="56,0.7 67.6,12.3 56,23.5 	"/>
	<line class="st2" x1="0" y1="12.3" x2="67.6" y2="12.3"/>
</g>
</svg>
