<?xml version="1.0" encoding="utf-8"?>
<!-- Generator: Adobe Illustrator 19.0.1, SVG Export Plug-In . SVG Version: 6.00 Build 0)  -->
<svg version="1.1" id="Layer_1" xmlns="http://www.w3.org/2000/svg" xmlns:xlink="http://www.w3.org/1999/xlink" x="0px" y="0px"
	 viewBox="0 0 96.6 19.9" style="enable-background:new 0 0 96.6 19.9;" xml:space="preserve">
<style type="text/css">
	.st0{fill:#228FC7;}
	.st1{fill:#FFFFFF;}
</style>
<g>
	<circle class="st0" cx="9.9" cy="9.9" r="9.9"/>
	<path class="st1" d="M3.4,11c0.9,0.9,4,3.9,5.2,5.1c0.2,0.2,0.6,0.2,0.7-0.1c0.9-1.6,3.6-6.8,6.3-10.1c0.1-0.2,0.1-0.4,0-0.6
		c-0.5-0.5-1.1-1.1-1.6-1.5c-0.2-0.2-0.5-0.2-0.6,0C11.2,6.2,9.2,9.7,8.5,11c-0.1,0.3-0.5,0.3-0.7,0.1c-0.9-0.8-2-1.8-2.8-2.6
		C4.8,8.4,4.4,8.4,4.3,8.7c-0.3,0.5-0.6,1.2-1,1.8C3.2,10.7,3.3,10.9,3.4,11z"/>
	<path class="st0" d="M35,16.3h-2.4v-5.9h-5.1v5.9h-2.3V3.5h2.3v5.1h5.1V3.5H35V16.3z"/>
	<path class="st0" d="M45.6,10.1v6.2h-1.8l-0.2-1.4c-0.7,0.7-1.8,1.6-3.5,1.6c-1.7,0-2.9-0.9-2.9-2.6v-0.9c0-1.5,1-2.3,2.7-2.3h3.4
		v-0.6c0-1-0.4-1.3-1.7-1.3c-0.8,0-2.4,0.1-3.8,0.2l-0.2-1.6c1.3-0.2,3.4-0.4,4.6-0.4C44.4,6.9,45.6,7.7,45.6,10.1z M39.4,13.6
		c0,0.8,0.4,1.1,1.2,1.1c0.7,0,1.7-0.3,2.7-1.1v-1.4h-2.9c-0.8,0-1,0.4-1,1V13.6z"/>
	<path class="st0" d="M56.3,16.3h-2.3V8.9h-1.5c-0.7,0-0.9,0.2-1,1c-0.2,1.5-0.4,3.2-0.8,4.4c-0.4,1.7-1.6,2.3-3.4,2.2l-0.2-1.7
		c1-0.2,1.3-0.4,1.6-1.1c0.3-1,0.5-2.7,0.7-4.1c0.1-1.5,0.9-2.3,2.6-2.3h4.4V16.3z"/>
	<path class="st0" d="M67.3,11.7c0,3.5-1.2,4.8-4.5,4.8c-3.3,0-4.5-1.3-4.5-4.8c0-3.5,1.2-4.8,4.5-4.8C66.1,6.9,67.3,8.2,67.3,11.7z
		 M60.6,11.7c0,2.4,0.5,3,2.1,3c1.7,0,2.2-0.7,2.2-3c0-2.4-0.5-3-2.2-3C61.1,8.7,60.6,9.4,60.6,11.7z"/>
	<path class="st0" d="M76.4,7.3l-0.1,1.6h-4c-0.7,0-0.9,0.3-0.9,1v6.5h-2.3V9.2c0-1.4,0.7-2.1,2.2-2.1C73,7.1,74.9,7.1,76.4,7.3z"/>
	<path class="st0" d="M84.3,16.3V11c0-0.4,0.1-0.8,0.1-1.4h-0.1c-0.1,0.4-0.4,0.9-0.7,1.2l-3.9,5.4h-1.9V7.2h2v5.3
		c0,0.4,0,0.8-0.1,1.3h0.1c0.2-0.4,0.4-0.8,0.7-1.2l3.9-5.5h1.9v9.1H84.3z"/>
	<path class="st0" d="M96.6,7.2v9.2h-2.2v-3.2h-2.1c-0.7,0-1.1,0.3-1.2,0.8l-0.7,2.4h-2.3l0.8-2.8c0.2-0.8,1.1-1,1.8-1.1v-0.1
		c-1.5-0.3-2-1.1-2-2.5c0-1.9,0.8-2.8,3.7-2.8C94.5,7,95.4,7,96.6,7.2z M94.3,8.8h-2c-1.3,0-1.5,0.3-1.5,1.3c0,1.1,0.2,1.4,1.5,1.4
		h2V8.8z"/>
</g>
</svg>
