<?xml version="1.0" encoding="utf-8"?>
<!-- Generator: Adobe Illustrator 19.0.1, SVG Export Plug-In . SVG Version: 6.00 Build 0)  -->
<svg version="1.1" id="Layer_1" xmlns="http://www.w3.org/2000/svg" xmlns:xlink="http://www.w3.org/1999/xlink" x="0px" y="0px"
	 viewBox="0 0 58.8 39.6" style="enable-background:new 0 0 58.8 39.6;" xml:space="preserve">
<style type="text/css">
	.st0{fill:none;stroke:#228FC7;stroke-width:2;stroke-linecap:round;stroke-linejoin:round;stroke-miterlimit:10;}
	.st1{fill:none;stroke:#228FC7;stroke-width:2;stroke-linecap:square;stroke-miterlimit:10;}
	.st2{fill:none;stroke:#228FC7;stroke-width:2;stroke-miterlimit:10;}
</style>
<g>
	<path class="st1" d="M48.6,20.5c-5.2,0.7-8,3.1-8,6h8"/>
	<path class="st1" d="M28.9,1h14.6c0.8,0,1.5,0.4,1.9,1.1l6.2,10.4h6.1v3l-3.4,2.1c-0.7,0.4-1.1,1.1-1.1,1.9v14.2v2.6
		c0,1.3-1.1,2.4-2.4,2.4h-4.4c-1.3,0-2.4-1.1-2.4-2.4v-2.6"/>
	<rect x="23.1" y="21.2" class="st1" width="12.6" height="5.3"/>
	<path class="st1" d="M10.2,20.5c5.2,0.7,8,3.1,8,6h-8"/>
	<polyline class="st1" points="10.2,33.6 28.9,33.6 48.6,33.6 	"/>
	<polygon class="st1" points="12.3,12.4 16.5,5.5 42.3,5.5 46.5,12.4 	"/>
	<path class="st1" d="M28.9,1H15.3c-0.8,0-1.5,0.4-1.9,1.1L7.1,12.4H1v3l3.4,2.1c0.7,0.4,1.1,1.1,1.1,1.9v14.2v2.6
		c0,1.3,1.1,2.4,2.4,2.4h4.4c1.3,0,2.4-1.1,2.4-2.4v-2.6"/>
</g>
</svg>
