<?xml version="1.0" encoding="utf-8"?>
<!-- Generator: Adobe Illustrator 19.0.1, SVG Export Plug-In . SVG Version: 6.00 Build 0)  -->
<svg version="1.1" id="Layer_1" xmlns="http://www.w3.org/2000/svg" xmlns:xlink="http://www.w3.org/1999/xlink" x="0px" y="0px"
	 viewBox="0 0 38.3 49.7" style="enable-background:new 0 0 38.3 49.7;" xml:space="preserve">
<style type="text/css">
	.st0{fill:none;stroke:#228FC7;stroke-width:2;stroke-linecap:round;stroke-linejoin:round;stroke-miterlimit:10;}
	.st1{fill:none;stroke:#228FC7;stroke-width:2;stroke-linecap:square;stroke-miterlimit:10;}
	.st2{fill:none;stroke:#228FC7;stroke-width:2;stroke-miterlimit:10;}
</style>
<g>
	<path class="st1" d="M37.3,45.7c0,1.7-1.3,3-3,3H4c-1.7,0-3-1.3-3-3V4c0-1.7,1.3-3,3-3h30.3c1.7,0,3,1.3,3,3V45.7z"/>
	<rect x="6" y="6" class="st1" width="26.3" height="6.3"/>
	<polyline class="st1" points="6,17.3 6,23.3 12,23.3 	"/>
	<polyline class="st1" points="16.2,17.3 16.2,23.3 22.2,23.3 	"/>
	<polyline class="st1" points="26.3,17.3 26.3,23.3 32.3,23.3 	"/>
	<polyline class="st1" points="6,27.5 6,33.5 12,33.5 	"/>
	<polyline class="st1" points="16.2,27.5 16.2,33.5 22.2,33.5 	"/>
	<polyline class="st1" points="6,37.7 6,43.7 12,43.7 	"/>
	<polyline class="st1" points="16.2,37.7 16.2,43.7 22.2,43.7 	"/>
	<polyline class="st1" points="26.3,27.5 26.3,43.7 32.3,43.7 	"/>
</g>
</svg>
