<?xml version="1.0" encoding="utf-8"?>
<!-- Generator: Adobe Illustrator 19.0.1, SVG Export Plug-In . SVG Version: 6.00 Build 0)  -->
<svg version="1.1" id="Layer_1" xmlns="http://www.w3.org/2000/svg" xmlns:xlink="http://www.w3.org/1999/xlink" x="0px" y="0px"
	 viewBox="0 0 113.3 114.6" style="enable-background:new 0 0 113.3 114.6;" xml:space="preserve">
<style type="text/css">
	.st0{fill:none;stroke:#228FC7;stroke-width:2;stroke-linecap:round;stroke-linejoin:round;stroke-miterlimit:10;}
	.st1{fill:none;stroke:#228FC7;stroke-width:2;stroke-linecap:square;stroke-miterlimit:10;}
	.st2{fill:none;stroke:#228FC7;stroke-width:2;stroke-miterlimit:10;}
</style>
<g>
	<g>
		<polyline class="st0" points="27.4,91.3 27.4,113.6 41.6,113.6 41.6,99.7 		"/>
		<polyline class="st0" points="84.9,91.3 84.9,113.6 70.6,113.6 70.6,99.7 		"/>
	</g>
	<path class="st0" d="M56.1,42.4c8.5,0,16.3,2.3,22.5,6"/>
	<path class="st0" d="M112.3,59.5c0,5.9-4.8,10.7-10.7,10.7"/>
	<path class="st0" d="M38.7,57.4c0,4-3.2,7.2-7.2,7.2c-4,0-7.2-3.2-7.2-7.2"/>
	<path class="st0" d="M59.9,42.3c-1.1-1.5-1.8-3.3-1.8-5.3c0-4.9,4-8.8,8.8-8.8c4.9,0,8.8,4,8.8,8.8c0,3.5-2,6.5-5,7.9"/>
	<path class="st0" d="M18,78.9H3.4c-1.3,0-2.4-1.1-2.4-2.4V64.1c0-1.3,1.1-2.4,2.4-2.4h8.7v-0.2c2-6.1,6.1-11.5,11.6-15.8l0-16.4
		L36,38.8c6.1-2.3,12.9-3.6,20.1-3.6c0.7,0,1.5,0,2.2,0"/>
	<g>
		<line class="st0" x1="70.8" y1="1" x2="70.8" y2="11.4"/>
		<line class="st0" x1="70.8" y1="17.7" x2="70.8" y2="22.7"/>
		<line class="st0" x1="63" y1="8.7" x2="63" y2="22.7"/>
	</g>
	<path class="st0" d="M27.3,97.2C20,92.6,14.6,86.3,12.1,79.1"/>
	<path class="st0" d="M70.5,103.3c-4.5,1.2-9.4,1.8-14.4,1.8c-5.1,0-9.9-0.6-14.5-1.8"/>
	<path class="st0" d="M75.9,38.7c15.2,5.7,25.7,17.6,25.7,31.5c0,10.9-6.5,20.7-16.7,27.1"/>
	<line class="st0" x1="8.3" y1="113.6" x2="103.9" y2="113.6"/>
</g>
</svg>
