<?xml version="1.0" encoding="utf-8"?>
<!-- Generator: Adobe Illustrator 19.0.1, SVG Export Plug-In . SVG Version: 6.00 Build 0)  -->
<svg version="1.1" id="Layer_1" xmlns="http://www.w3.org/2000/svg" xmlns:xlink="http://www.w3.org/1999/xlink" x="0px" y="0px"
	 viewBox="0 0 102.1 102.6" style="enable-background:new 0 0 102.1 102.6;" xml:space="preserve">
<style type="text/css">
	.st0{fill:none;stroke:#228FC7;stroke-width:2;stroke-linecap:round;stroke-linejoin:round;stroke-miterlimit:10;}
	.st1{fill:none;stroke:#228FC7;stroke-width:2;stroke-linecap:square;stroke-miterlimit:10;}
	.st2{fill:none;stroke:#228FC7;stroke-width:2;stroke-miterlimit:10;}
</style>
<g>
	<g>
		<path class="st0" d="M96.9,69.2c2.4,0,4.3-1.9,4.3-4.3V5.3c0-2.4-1.9-4.3-4.3-4.3H5.3C2.9,1,1,2.9,1,5.3v59.6
			c0,2.4,1.9,4.3,4.3,4.3h37.8"/>
		<line class="st0" x1="10.6" y1="1" x2="10.6" y2="69.2"/>
		<line class="st0" x1="88.9" y1="1" x2="88.9" y2="48.2"/>
		<circle class="st0" cx="94.9" cy="35.1" r="2.5"/>
		<path class="st0" d="M67.2,59.8v-8.7c0-2.1,1.7-3.8,3.8-3.8l0,0c2.1,0,3.8,1.7,3.8,3.8v10.9"/>
		<path class="st0" d="M74.8,62.1v-8.7c0-2.1,1.7-3.8,3.8-3.8l0,0c2.1,0,3.8,1.7,3.8,3.8v8.7"/>
		<path class="st0" d="M82.5,62.1v-4.2c0-2.1,1.7-3.8,3.8-3.8l0,0c2.1,0,3.8,1.7,3.8,3.8v10.9c0,5.2-1.1,10.1-3.2,14.5v10.6"/>
		<path class="st0" d="M67.2,57.6V33.3c0-2.1-1.7-3.8-3.8-3.8l0,0c-2.1,0-3.8,1.7-3.8,3.8v34.4"/>
		<polyline class="st0" points="57.8,101.6 57.8,93.9 91.2,93.9 91.2,101.6 		"/>
		<path class="st0" d="M62.1,93.9v-7.8c-5.3-1.7-9.1-6-10.9-11.2l-4.7-16.3c-0.6-1.8,0.3-3.7,2.1-4.3c1.8-0.6,3.7,0.3,4.3,2.1
			c0,0,0.9,3,3.5,9.2c0.5,1.2,1.8,2.1,3.2,2.1"/>
	</g>
	<path class="st0" d="M55.2,33.5c0-4.5,3.7-8.2,8.2-8.2c4.5,0,8.2,3.7,8.2,8.2"/>
	<path class="st0" d="M54.6,42.4c-4.9-4.9-4.9-12.8,0-17.6c4.9-4.9,12.7-4.9,17.6,0c4.9,4.9,4.9,12.8,0,17.6"/>
	<path class="st0" d="M51.6,45.4c-6.5-6.5-6.5-17.1,0-23.6c6.5-6.5,17.1-6.5,23.6,0c4.8,4.8,6.1,11.7,3.8,17.7"/>
</g>
</svg>
