<?xml version="1.0" encoding="utf-8"?>
<!-- Generator: Adobe Illustrator 19.0.1, SVG Export Plug-In . SVG Version: 6.00 Build 0)  -->
<svg version="1.1" id="Layer_1" xmlns="http://www.w3.org/2000/svg" xmlns:xlink="http://www.w3.org/1999/xlink" x="0px" y="0px"
	 viewBox="0 0 55.3 48.8" style="enable-background:new 0 0 55.3 48.8;" xml:space="preserve">
<style type="text/css">
	.st0{fill:none;stroke:#228FC7;stroke-width:2;stroke-linecap:round;stroke-linejoin:round;stroke-miterlimit:10;}
	.st1{fill:none;stroke:#228FC7;stroke-width:2;stroke-linecap:square;stroke-miterlimit:10;}
	.st2{fill:none;stroke:#228FC7;stroke-width:2;stroke-miterlimit:10;}
</style>
<g>
	<g>
		<path class="st1" d="M24.5,40.7c0-1.5,1.2-2.7,2.7-2.7h9.8c1.5,0,2.7-1.2,2.7-2.7l0,0c0-1.5-1.2-2.7-2.7-2.7h-8.6l-8.6-3.3h-7.9"
			/>
		<polyline class="st1" points="1,27.8 11.9,27.8 11.9,44.8 1,44.8 		"/>
		<path class="st1" d="M38.4,37.6L51,33c1.3-0.5,2.7,0.2,3.1,1.5c0.5,1.3-0.2,2.7-1.5,3.1l-17,9.1c-2.5,1.3-5.5,1.5-8.1,0.5l-11-4.1
			h-4.6"/>
		<g>
			<line class="st1" x1="4.5" y1="39.9" x2="4.5" y2="41.2"/>
			<line class="st1" x1="8.4" y1="39.9" x2="8.4" y2="41.2"/>
		</g>
	</g>
	<path class="st1" d="M40.9,3.2c-2.9-2.9-7.7-2.9-10.7,0l-1.7,1.7l-1.7-1.7c-2.9-2.9-7.7-2.9-10.7,0c-2.9,2.9-2.9,7.7,0,10.7
		l12.4,12.4l12.4-12.4C43.8,10.9,43.8,6.2,40.9,3.2z"/>
</g>
</svg>
