<svg xmlns="http://www.w3.org/2000/svg" xmlns:xlink="http://www.w3.org/1999/xlink" width="512" height="10969" viewBox="0 0 512 10969"><svg viewBox="0 0 129 129" width="129" height="129" id="arrow-down" y="0"><path d="M121.3 34.6c-1.6-1.6-4.2-1.6-5.8 0l-51 51.1-51.1-51.1c-1.6-1.6-4.2-1.6-5.8 0-1.6 1.6-1.6 4.2 0 5.8l53.9 53.9c.8.8 1.8 1.2 2.9 1.2 1 0 2.1-.4 2.9-1.2l53.9-53.9c1.7-1.6 1.7-4.2.1-5.8z"></path></svg><svg viewBox="0 0 477.175 477.175" width="477.175" height="477.175" id="arrow-left" y="129"><path d="M145.188 238.575l215.5-215.5c5.3-5.3 5.3-13.8 0-19.1s-13.8-5.3-19.1 0l-225.1 225.1c-5.3 5.3-5.3 13.8 0 19.1l225.1 225c2.6 2.6 6.1 4 9.5 4s6.9-1.3 9.5-4c5.3-5.3 5.3-13.8 0-19.1l-215.4-215.5z"></path></svg><svg viewBox="0 0 477.175 477.175" width="477.175" height="477.175" id="arrow-right" y="607"><path d="M360.731 229.075l-225.1-225.1c-5.3-5.3-13.8-5.3-19.1 0s-5.3 13.8 0 19.1l215.5 215.5-215.5 215.5c-5.3 5.3-5.3 13.8 0 19.1 2.6 2.6 6.1 4 9.5 4 3.4 0 6.9-1.3 9.5-4l225.1-225.1c5.3-5.2 5.3-13.8.1-19z"></path></svg><svg width="64" height="64" viewBox="0 0 64 64" id="arrow-up" y="1085"><path d="M3.352 48.296l28.56-28.328 28.58 28.347c.397.394.917.59 1.436.59.52 0 1.04-.196 1.436-.59a2.003 2.003 0 0 0 0-2.849l-29.98-29.735c-.2-.2-.494-.375-.757-.475a2.052 2.052 0 0 0-2.166.456L.479 45.447a2.003 2.003 0 0 0 0 2.849 2.045 2.045 0 0 0 2.873 0z"></path></svg><svg viewBox="0 0 475.2 475.2" width="475.2" height="475.2" id="cancel" y="1149"><path d="M405.6 69.6C360.7 24.7 301.1 0 237.6 0s-123.1 24.7-168 69.6S0 174.1 0 237.6s24.7 123.1 69.6 168 104.5 69.6 168 69.6 123.1-24.7 168-69.6 69.6-104.5 69.6-168-24.7-123.1-69.6-168zm-19.1 316.9c-39.8 39.8-92.7 61.7-148.9 61.7s-109.1-21.9-148.9-61.7c-82.1-82.1-82.1-215.7 0-297.8C128.5 48.9 181.4 27 237.6 27s109.1 21.9 148.9 61.7c82.1 82.1 82.1 215.7 0 297.8z"></path><path d="M342.3 132.9c-5.3-5.3-13.8-5.3-19.1 0l-85.6 85.6-85.6-85.6c-5.3-5.3-13.8-5.3-19.1 0-5.3 5.3-5.3 13.8 0 19.1l85.6 85.6-85.6 85.6c-5.3 5.3-5.3 13.8 0 19.1 2.6 2.6 6.1 4 9.5 4s6.9-1.3 9.5-4l85.6-85.6 85.6 85.6c2.6 2.6 6.1 4 9.5 4 3.5 0 6.9-1.3 9.5-4 5.3-5.3 5.3-13.8 0-19.1l-85.4-85.6 85.6-85.6c5.3-5.3 5.3-13.8 0-19.1z"></path></svg><svg viewBox="0 0 26 26" width="26" height="26" id="checked" y="1625"><path d="M.3 14c-.2-.2-.3-.5-.3-.7s.1-.5.3-.7l1.4-1.4c.4-.4 1-.4 1.4 0l.1.1 5.5 5.9c.2.2.5.2.7 0L22.8 3.3h.1c.4-.4 1-.4 1.4 0l1.4 1.4c.4.4.4 1 0 1.4l-16 16.6c-.2.2-.4.3-.7.3-.3 0-.5-.1-.7-.3L.5 14.3.3 14z"></path></svg><svg viewBox="0 0 59 59" width="59" height="59" id="garbage" y="1651"><path d="M29.5 51a1 1 0 0 0 1-1V17a1 1 0 1 0-2 0v33a1 1 0 0 0 1 1zm-10 0a1 1 0 0 0 1-1V17a1 1 0 1 0-2 0v33a1 1 0 0 0 1 1zm20 0a1 1 0 0 0 1-1V17a1 1 0 1 0-2 0v33a1 1 0 0 0 1 1z"></path><path d="M52.5 6H38.456c-.11-1.25-.495-3.358-1.813-4.711C35.809.434 34.751 0 33.499 0H23.5c-1.252 0-2.31.434-3.144 1.289C19.038 2.642 18.653 4.75 18.543 6H6.5a1 1 0 1 0 0 2h2.041l1.915 46.021C10.493 55.743 11.565 59 15.364 59h28.272c3.799 0 4.871-3.257 4.907-4.958L50.459 8H52.5a1 1 0 1 0 0-2zM21.792 2.681C22.24 2.223 22.799 2 23.5 2h9.999c.701 0 1.26.223 1.708.681.805.823 1.128 2.271 1.24 3.319H20.553c.112-1.048.435-2.496 1.239-3.319zm24.752 51.298C46.538 54.288 46.4 57 43.636 57H15.364c-2.734 0-2.898-2.717-2.909-3.042L10.542 8h37.915l-1.913 45.979z"></path></svg><svg viewBox="0 0 471.701 471.701" width="471.701" height="471.701" id="heart" y="1710"><path d="M433.601 67.001c-24.7-24.7-57.4-38.2-92.3-38.2s-67.7 13.6-92.4 38.3l-12.9 12.9-13.1-13.1c-24.7-24.7-57.6-38.4-92.5-38.4-34.8 0-67.6 13.6-92.2 38.2-24.7 24.7-38.3 57.5-38.2 92.4 0 34.9 13.7 67.6 38.4 92.3l187.8 187.8c2.6 2.6 6.1 4 9.5 4 3.4 0 6.9-1.3 9.5-3.9l188.2-187.5c24.7-24.7 38.3-57.5 38.3-92.4.1-34.9-13.4-67.7-38.1-92.4zm-19.2 165.7l-178.7 178-178.3-178.3c-19.6-19.6-30.4-45.6-30.4-73.3s10.7-53.7 30.3-73.2c19.5-19.5 45.5-30.3 73.1-30.3 27.7 0 53.8 10.8 73.4 30.4l22.6 22.6c5.3 5.3 13.8 5.3 19.1 0l22.4-22.4c19.6-19.6 45.7-30.4 73.3-30.4 27.6 0 53.6 10.8 73.2 30.3 19.6 19.6 30.3 45.6 30.3 73.3.1 27.7-10.7 53.7-30.3 73.3z"></path></svg><svg viewBox="0 0 486.196 486.196" width="486.196" height="486.196" id="house" y="2182"><path d="M481.708 220.456l-228.8-204.6c-.4-.4-.8-.7-1.3-1-5-4.8-13-5-18.3-.3l-228.8 204.6c-5.6 5-6 13.5-1.1 19.1 2.7 3 6.4 4.5 10.1 4.5 3.2 0 6.4-1.1 9-3.4l41.2-36.9v238.6c0 18.7 15.2 34 34 34h72.2c17.6 0 31.9-14.3 31.9-31.9v-121.3c0-2.7 2.2-4.9 4.9-4.9h72.9c2.7 0 4.9 2.2 4.9 4.9v121.3c0 17.6 14.3 31.9 31.9 31.9h72.2c19 0 34-18.7 34-42.6v-228.7l41.2 36.9c2.6 2.3 5.8 3.4 9 3.4 3.7 0 7.4-1.5 10.1-4.5 4.8-5.6 4.3-14.1-1.2-19.1zm-86.2 66.7v145.1c0 9.7-4.8 15.6-7 15.6h-72.2c-2.7 0-4.9-2.2-4.9-4.9v-121.1c0-17.6-14.3-31.9-31.9-31.9h-72.9c-17.6 0-31.9 14.3-31.9 31.9v121.3c0 2.7-2.2 4.9-4.9 4.9h-72.2c-3.8 0-7-3.1-7-7v-262.8l151.8-135.6 153.1 136.9v107.6z"></path></svg><svg width="16" height="16" viewBox="0 0 16 16" id="icon-newspaper" y="2669"><path d="M14 16H2a2 2 0 0 1-2-2V3a1 1 0 0 1 1-1h1c0-1.1.9-2 2-2h10a2 2 0 0 1 2 2v12a2 2 0 0 1-2 2zM4 5a1 1 0 0 0-2 0v8a1 1 0 0 0 2 0zm10-2a1 1 0 0 0-1-1H7a1 1 0 0 0-1 1v10a1 1 0 0 0 1 1h6a1 1 0 0 0 1-1zm-6 9v-2h4v2zm0-3V7h4v2zm4-3V4H8v2z"></path></svg><svg id="icons-calc" viewBox="0 0 38.3 49.7" width="38.3" height="49.7" y="2685"><style>.st0{fill:none;stroke:#228fc7;stroke-width:2;stroke-linecap:round;stroke-linejoin:round;stroke-miterlimit:10}.st1{stroke-linecap:square}.st1,.st2{fill:none;stroke:#228fc7;stroke-width:2;stroke-miterlimit:10}</style><path class="st1" d="M37.3 45.7c0 1.7-1.3 3-3 3H4c-1.7 0-3-1.3-3-3V4c0-1.7 1.3-3 3-3h30.3c1.7 0 3 1.3 3 3v41.7z"></path><path class="st1" d="M6 6h26.3v6.3H6zm0 11.3v6h6m4.2-6v6h6m4.1-6v6h6M6 27.5v6h6m4.2-6v6h6M6 37.7v6h6m4.2-6v6h6m4.1-16.2v16.2h6"></path></svg><svg id="icons-car" viewBox="0 0 58.8 39.6" width="58.8" height="39.6" y="2735"><style>.st0{fill:none;stroke:#228fc7;stroke-width:2;stroke-linecap:round;stroke-linejoin:round;stroke-miterlimit:10}.st1{stroke-linecap:square}.st1,.st2{fill:none;stroke:#228fc7;stroke-width:2;stroke-miterlimit:10}</style><path class="st1" d="M48.6 20.5c-5.2.7-8 3.1-8 6h8"></path><path class="st1" d="M28.9 1h14.6c.8 0 1.5.4 1.9 1.1l6.2 10.4h6.1v3l-3.4 2.1c-.7.4-1.1 1.1-1.1 1.9v16.8c0 1.3-1.1 2.4-2.4 2.4h-4.4c-1.3 0-2.4-1.1-2.4-2.4v-2.6M23.1 21.2h12.6v5.3H23.1zm-12.9-.7c5.2.7 8 3.1 8 6h-8m0 7.1h38.4"></path><path class="st1" d="M12.3 12.4l4.2-6.9h25.8l4.2 6.9z"></path><path class="st1" d="M28.9 1H15.3c-.8 0-1.5.4-1.9 1.1L7.1 12.4H1v3l3.4 2.1c.7.4 1.1 1.1 1.1 1.9v16.8c0 1.3 1.1 2.4 2.4 2.4h4.4c1.3 0 2.4-1.1 2.4-2.4v-2.6"></path></svg><svg id="icons-check" viewBox="0 0 96.7 96.7" width="96.7" height="96.7" y="2775"><style>.st0{fill:none;stroke:#228fc7;stroke-width:2;stroke-linecap:round;stroke-linejoin:round;stroke-miterlimit:10}.st1{stroke-linecap:square}.st1,.st2{fill:none;stroke:#228fc7;stroke-width:2;stroke-miterlimit:10}</style><path class="st0" d="M73 37.4l-7.9-7.8-21.8 21.8-11.8-11.7-7.8 7.8 19.6 19.6 7.8-7.8z"></path><circle class="st0" cx="48.3" cy="48.3" r="47.3"></circle><path class="st0" d="M48.3 6.6v4.2m0 75.1v4.2m41.8-41.8h-4.2m-75.1 0H6.6"></path></svg><svg id="icons-doc" viewBox="0 0 78.3 100.1" width="78.3" height="100.1" y="2872"><style>.st0{fill:none;stroke:#228fc7;stroke-width:2;stroke-linecap:round;stroke-linejoin:round;stroke-miterlimit:10}.st1{stroke-linecap:square}.st1,.st2{fill:none;stroke:#228fc7;stroke-width:2;stroke-miterlimit:10}</style><path class="st0" d="M54.2 24h23.1L54.2 1z"></path><path class="st0" d="M54.2 1H1v98.1h76.3V24m-63.4 0h27.2M13.9 37.1h50.5m-50.5 13h50.5m-50.5 13h50.5m-50.5 13h50.5"></path></svg><svg id="icons-hat" viewBox="0 0 60.4 46.7" width="60.4" height="46.7" y="2973"><style>.st0{fill:none;stroke:#228fc7;stroke-width:2;stroke-linecap:round;stroke-linejoin:round;stroke-miterlimit:10}.st1{stroke-linecap:square}.st1,.st2{fill:none;stroke:#228fc7;stroke-width:2;stroke-miterlimit:10}</style><path class="st1" d="M30.2 29.9l-28-14.4 28-14.4 28 14.4z"></path><path class="st1" d="M46.4 21.8v23.9H14V21.8m-7.1-3.6v19.5"></path></svg><svg id="icons-helf" viewBox="0 0 50.3 46.5" width="50.3" height="46.5" y="3020"><style>.st0{fill:none;stroke:#228fc7;stroke-width:2;stroke-linecap:round;stroke-linejoin:round;stroke-miterlimit:10}.st1{stroke-linecap:square}.st1,.st2{fill:none;stroke:#228fc7;stroke-width:2;stroke-miterlimit:10}</style><path class="st1" d="M49.3 44.6c0 .5-.4.9-.9.9H1.9c-.5 0-.9-.4-.9-.9v-35c0-.5.4-.9.9-.9h46.5c.5 0 .9.4.9.9v35z"></path><path class="st1" d="M34.7 23.4h-5.9v-5.9c0-.5-.4-.9-.9-.9h-5.6c-.5 0-.9.4-.9.9v5.9h-5.9c-.5 0-.9.4-.9.9v5.6c0 .5.4.9.9.9h5.9v5.9c0 .5.4.9.9.9H28c.5 0 .9-.4.9-.9v-5.9h5.9c.5 0 .9-.4.9-.9v-5.6c-.1-.5-.5-.9-1-.9zM17 8.7v-5C17 2.2 18.3 1 19.7 1h10.8c1.5 0 2.7 1.2 2.7 2.7v5"></path></svg><svg id="icons-home" viewBox="0 0 53 49.4" width="53" height="49.4" y="3067"><style>.st0{fill:none;stroke:#228fc7;stroke-width:2;stroke-linecap:round;stroke-linejoin:round;stroke-miterlimit:10}.st1{stroke-linecap:square}.st1,.st2{fill:none;stroke:#228fc7;stroke-width:2;stroke-miterlimit:10}</style><path class="st2" d="M9.2 48.4V26.9m34.7 0v21.5m-17.4-47L1.4 24.2l4.9 4.9 20.2-18.5 20.2 18.5 4.9-4.9zm-5.3 45.9V32.4h10.6v14.9m17.8 1.1H3.5"></path></svg><svg id="icons-house" viewBox="0 0 58.3 42.3" width="58.3" height="42.3" y="3117"><style>.st0{fill:none;stroke:#228fc7;stroke-width:2;stroke-linecap:round;stroke-linejoin:round;stroke-miterlimit:10}.st1{stroke-linecap:square}.st1,.st2{fill:none;stroke:#228fc7;stroke-width:2;stroke-miterlimit:10}</style><path class="st2" d="M47.4 41.3V19.2"></path><circle class="st2" cx="47.4" cy="23.4" r="9.9"></circle><path class="st2" d="M8 41.3V23.1m29.4 0v18.2m-19.2-1V27.7h9v12.6m25.3 1H3.1M39.8 17L22.7 1.4 1.4 20.7l4.2 4.2L22.7 9.2l14.6 13.3M47.4 29l-4.6-4.6m4.6.4l4.6-4.6"></path></svg><svg id="icons-iis" viewBox="0 0 50.3 46.5" width="50.3" height="46.5" y="3160"><style>.st0{fill:none;stroke:#228fc7;stroke-width:2;stroke-linecap:round;stroke-linejoin:round;stroke-miterlimit:10}.st1{stroke-linecap:square}.st1,.st2{fill:none;stroke:#228fc7;stroke-width:2;stroke-miterlimit:10}</style><path class="st1" d="M49.3 44.6c0 .5-.4.9-.9.9H1.9c-.5 0-.9-.4-.9-.9v-35c0-.5.4-.9.9-.9h46.5c.5 0 .9.4.9.9v35zM17 8.7v-5C17 2.2 18.3 1 19.7 1h10.8c1.5 0 2.7 1.2 2.7 2.7v5"></path><path class="st1" d="M21.1 26.9H1.9m19.2-2.8h8.2v5.6h-8.2zm28.2 2.8H29.2"></path></svg><svg id="icons-info" viewBox="0 0 102.1 102.6" width="102.1" height="102.6" y="3207"><style>.st0{fill:none;stroke:#228fc7;stroke-width:2;stroke-linecap:round;stroke-linejoin:round;stroke-miterlimit:10}.st1{stroke-linecap:square}.st1,.st2{fill:none;stroke:#228fc7;stroke-width:2;stroke-miterlimit:10}</style><path class="st0" d="M96.9 69.2c2.4 0 4.3-1.9 4.3-4.3V5.3c0-2.4-1.9-4.3-4.3-4.3H5.3C2.9 1 1 2.9 1 5.3v59.6c0 2.4 1.9 4.3 4.3 4.3h37.8M10.6 1v68.2M88.9 1v47.2"></path><circle class="st0" cx="94.9" cy="35.1" r="2.5"></circle><path class="st0" d="M67.2 59.8v-8.7c0-2.1 1.7-3.8 3.8-3.8 2.1 0 3.8 1.7 3.8 3.8V62m0 .1v-8.7c0-2.1 1.7-3.8 3.8-3.8 2.1 0 3.8 1.7 3.8 3.8v8.7m.1 0v-4.2c0-2.1 1.7-3.8 3.8-3.8 2.1 0 3.8 1.7 3.8 3.8v10.9c0 5.2-1.1 10.1-3.2 14.5v10.6M67.2 57.6V33.3c0-2.1-1.7-3.8-3.8-3.8-2.1 0-3.8 1.7-3.8 3.8v34.4m-1.8 33.9v-7.7h33.4v7.7"></path><path class="st0" d="M62.1 93.9v-7.8c-5.3-1.7-9.1-6-10.9-11.2l-4.7-16.3c-.6-1.8.3-3.7 2.1-4.3 1.8-.6 3.7.3 4.3 2.1 0 0 .9 3 3.5 9.2.5 1.2 1.8 2.1 3.2 2.1m-4.4-34.2c0-4.5 3.7-8.2 8.2-8.2 4.5 0 8.2 3.7 8.2 8.2"></path><path class="st0" d="M54.6 42.4c-4.9-4.9-4.9-12.8 0-17.6 4.9-4.9 12.7-4.9 17.6 0 4.9 4.9 4.9 12.8 0 17.6"></path><path class="st0" d="M51.6 45.4c-6.5-6.5-6.5-17.1 0-23.6s17.1-6.5 23.6 0c4.8 4.8 6.1 11.7 3.8 17.7"></path></svg><svg id="icons-like" viewBox="0 0 107.3 93.4" width="107.3" height="93.4" y="3310"><style>.st0{fill:none;stroke:#228fc7;stroke-width:2;stroke-linecap:round;stroke-linejoin:round;stroke-miterlimit:10}.st1{stroke-linecap:square}.st1,.st2{fill:none;stroke:#228fc7;stroke-width:2;stroke-miterlimit:10}</style><path class="st0" d="M101.8 44.4c0 3.6-2.9 6.5-6.5 6.5H79.9c-3.6 0-6.5-2.9-6.5-6.5s2.9-6.5 6.5-6.5h15.5c3.5 0 6.4 2.9 6.4 6.5zm-4.4 38.8c0 3.6-2.9 6.5-6.5 6.5h-11c-3.6 0-6.5-2.9-6.5-6.5s2.9-6.5 6.5-6.5H91c3.5 0 6.4 2.9 6.4 6.5z"></path><path class="st0" d="M101.8 70.3c0 3.6-2.9 6.5-6.5 6.5H77.6c-3.6 0-6.5-2.9-6.5-6.5s2.9-6.5 6.5-6.5h17.7c3.6 0 6.5 2.9 6.5 6.5zm4.5-13c0 3.6-2.9 6.5-6.5 6.5H75.4c-3.6 0-6.5-2.9-6.5-6.5s2.9-6.5 6.5-6.5h24.4c3.6.1 6.5 3 6.5 6.5zM79.9 37.9H65.3s9.6-20.3 9.6-28.4c0-8.1-3.7-8.5-7-8.5s-4.8 10-9.6 17-13.7 19.9-25.1 19.9H1.1m6.5 0h24.6v54.5H7.6zM1 92.4h31.2m-13.7-10V87m6.7-4.6V87m12.5.4c3.1 0 5.9.8 8.4 2.3H91"></path></svg><svg id="icons-low-price" viewBox="0 0 113.3 114.6" width="113.3" height="114.6" y="3404"><style>.st0{fill:none;stroke:#228fc7;stroke-width:2;stroke-linecap:round;stroke-linejoin:round;stroke-miterlimit:10}.st1{stroke-linecap:square}.st1,.st2{fill:none;stroke:#228fc7;stroke-width:2;stroke-miterlimit:10}</style><path class="st0" d="M27.4 91.3v22.3h14.2V99.7m43.3-8.4v22.3H70.6V99.7M56.1 42.4c8.5 0 16.3 2.3 22.5 6m33.7 11.1c0 5.9-4.8 10.7-10.7 10.7M38.7 57.4c0 4-3.2 7.2-7.2 7.2s-7.2-3.2-7.2-7.2"></path><path class="st0" d="M59.9 42.3c-1.1-1.5-1.8-3.3-1.8-5.3 0-4.9 4-8.8 8.8-8.8 4.9 0 8.8 4 8.8 8.8 0 3.5-2 6.5-5 7.9"></path><path class="st0" d="M18 78.9H3.4c-1.3 0-2.4-1.1-2.4-2.4V64.1c0-1.3 1.1-2.4 2.4-2.4h8.7v-.2c2-6.1 6.1-11.5 11.6-15.8V29.3L36 38.8c6.1-2.3 12.9-3.6 20.1-3.6h2.2M70.8 1v10.4m0 6.3v5M63 8.7v14M27.3 97.2C20 92.6 14.6 86.3 12.1 79.1m58.4 24.2c-4.5 1.2-9.4 1.8-14.4 1.8-5.1 0-9.9-.6-14.5-1.8m34.3-64.6c15.2 5.7 25.7 17.6 25.7 31.5 0 10.9-6.5 20.7-16.7 27.1M8.3 113.6h95.6"></path></svg><svg id="icons-operator" viewBox="0 0 49.3 51.5" width="49.3" height="51.5" y="3519"><style>.st0{fill:none;stroke:#228fc7;stroke-width:2;stroke-linecap:round;stroke-linejoin:round;stroke-miterlimit:10}.st1{stroke-linecap:square}.st1,.st2{fill:none;stroke:#228fc7;stroke-width:2;stroke-miterlimit:10}</style><path class="st2" d="M40.4 25.8c-11.1 0-20.4-7.4-23.3-17.6m21.4 17.6v3.6c0 7.6-6.2 13.8-13.8 13.8-7.6 0-13.8-6.2-13.8-13.8V25c0-5.5 3.2-10.2 7.8-12.4m11.4 35.8c0 1.1-.9 2-2 2h-4.2c-1.1 0-2-.9-2-2s.9-2 2-2h4.2c1.1 0 2 .9 2 2zM43 20.9h3c1.3 0 2.3 1 2.3 2.3v6.6c0 1.3-1 2.3-2.3 2.3h-3"></path><path class="st2" d="M6.3 20.9h-3C2 20.9 1 22 1 23.2v6.6c0 1.3 1 2.3 2.3 2.3h3v-14C6.3 8.6 13.9 1 23.4 1H26c9.4 0 17 7.6 17 17.1v13.8c0 8-5.5 14.7-12.9 16.6"></path></svg><svg viewBox="0 0 60 60" width="60" height="60" id="icons-play-button" y="3571"><path d="M30 0C13.458 0 0 13.458 0 30s13.458 30 30 30 30-13.458 30-30S46.542 0 30 0zm15.563 30.826l-22 15a1.002 1.002 0 0 1-1.03.058A.999.999 0 0 1 22 45V15a.999.999 0 0 1 1.564-.826l22 15a1.001 1.001 0 0 1-.001 1.652z"></path></svg><svg id="icons-question" viewBox="0 0 49.9 45.3" width="49.9" height="45.3" y="3631"><style>.st0{fill:none;stroke:#228fc7;stroke-width:2;stroke-linecap:round;stroke-linejoin:round;stroke-miterlimit:10}.st1{stroke-linecap:square}.st1,.st2{fill:none;stroke:#228fc7;stroke-width:2;stroke-miterlimit:10}</style><path class="st2" d="M29.2 24.5l2.7 2.7 5.1-5"></path><path class="st2" d="M44.3 37.6v6.7H1V1h43.3v11.2M1 9.3h43.3"></path><path class="st2" d="M45.4 15.2H20.7c-1.9 0-3.5 1.6-3.5 3.5v12.4c0 1.9 1.6 3.5 3.5 3.5h1.7v4.2l7.4-4.2h15.5c1.9 0 3.5-1.6 3.5-3.5V18.7c.1-2-1.4-3.5-3.4-3.5z"></path><circle class="st2" cx="5.4" cy="5.1" r=".4"></circle><circle class="st2" cx="9.6" cy="5.1" r=".4"></circle><circle class="st2" cx="13.7" cy="5.1" r=".4"></circle></svg><svg id="icons-save" viewBox="0 0 55.3 48.8" width="55.3" height="48.8" y="3677"><style>.st0{fill:none;stroke:#228fc7;stroke-width:2;stroke-linecap:round;stroke-linejoin:round;stroke-miterlimit:10}.st1{stroke-linecap:square}.st1,.st2{fill:none;stroke:#228fc7;stroke-width:2;stroke-miterlimit:10}</style><path class="st1" d="M24.5 40.7c0-1.5 1.2-2.7 2.7-2.7H37c1.5 0 2.7-1.2 2.7-2.7 0-1.5-1.2-2.7-2.7-2.7h-8.6l-8.6-3.3h-7.9"></path><path class="st1" d="M1 27.8h10.9v17H1m37.4-7.2L51 33c1.3-.5 2.7.2 3.1 1.5.5 1.3-.2 2.7-1.5 3.1l-17 9.1c-2.5 1.3-5.5 1.5-8.1.5l-11-4.1h-4.6m-7.4-3.2v1.3m3.9-1.3v1.3m32.5-38C38 .3 33.2.3 30.2 3.2l-1.7 1.7-1.7-1.7C23.9.3 19.1.3 16.1 3.2c-2.9 2.9-2.9 7.7 0 10.7l12.4 12.4 12.4-12.4c2.9-3 2.9-7.7 0-10.7z"></path></svg><svg id="icons-support" viewBox="0 0 102.6 100.9" width="102.6" height="100.9" y="3726"><style>.st0{fill:none;stroke:#228fc7;stroke-width:2;stroke-linecap:round;stroke-linejoin:round;stroke-miterlimit:10}.st1{stroke-linecap:square}.st1,.st2{fill:none;stroke:#228fc7;stroke-width:2;stroke-miterlimit:10}</style><circle class="st0" cx="10.5" cy="46.9" r="6"></circle><path class="st0" d="M14.5 88.2C7.1 88.2 1 82.2 1 74.7s6.1-13.5 13.5-13.5m-9.4 4c-.2-1.4-.3-2.7-.3-4.2 0-3.3.6-6.5 1.6-9.5"></path><path class="st0" d="M27.7 88.2c0 2.4-1.9 4.3-4.3 4.3h-4.6c-2.4 0-4.3-1.9-4.3-4.3V61.1c0-2.4 1.9-4.3 4.3-4.3h4.6c2.4 0 4.3 1.9 4.3 4.3v27.1zM15.3 44c0-19.9 16.1-36 36-36M8.4 41.4C9.7 18.9 28.4 1 51.3 1"></path><circle class="st0" cx="92.2" cy="46.9" r="6"></circle><path class="st0" d="M88.1 88.2c7.5 0 13.5-6.1 13.5-13.5 0-7.5-6.1-13.5-13.5-13.5"></path><path class="st0" d="M97.5 65.2c.2-1.4.3-2.7.3-4.2 0-3.3-.6-6.5-1.6-9.5M75 88.2c0 2.4 1.9 4.3 4.3 4.3h4.6c2.4 0 4.3-1.9 4.3-4.3V61.1c0-2.4-1.9-4.3-4.3-4.3h-4.6c-2.4 0-4.3 1.9-4.3 4.3v27.1zM87.4 44c0-19.9-16.1-36-36-36m42.8 33.4C92.9 18.9 74.2 1 51.3 1"></path><path class="st0" d="M88.1 88.2v7.5c0 2.4-1.9 4.3-4.3 4.3h-30c-2.4 0-4.3-1.9-4.3-4.3s1.9-4.3 4.3-4.3h6.4c2.4 0 4.3 1.9 4.3 4.3s-1.9 4.3-4.3 4.3"></path></svg><svg viewBox="0 0 490.4 490.4" width="490.4" height="490.4" id="interface" y="3827"><path d="M245.2 490.4c135.2 0 245.2-110 245.2-245.2S380.4 0 245.2 0 0 110 0 245.2s110 245.2 245.2 245.2zm0-465.9c121.7 0 220.7 99 220.7 220.7s-99 220.7-220.7 220.7-220.7-99-220.7-220.7 99-220.7 220.7-220.7z"></path><path d="M206.5 349.6c2.3 2.3 5.4 3.6 8.7 3.6 3.2 0 6.3-1.3 8.6-3.6l147.5-146.7c2.3-2.3 3.6-5.4 3.6-8.7 0-3.2-1.3-6.4-3.6-8.7l-44.6-44.8c-4.8-4.8-12.5-4.8-17.3-.1l-94 93.5-34.2-34.4c-2.3-2.3-5.4-3.6-8.7-3.6-3.2 0-6.3 1.3-8.6 3.6l-44.8 44.6c-2.3 2.3-3.6 5.4-3.6 8.7 0 3.2 1.3 6.4 3.6 8.7l87.4 87.9zm-34-123.9l34.3 34.5c4.8 4.8 12.5 4.8 17.3.1l94-93.5 27.3 27.4-130.1 129.4-70.2-70.6 27.4-27.3z"></path></svg><svg viewBox="0 0 490.2 490.2" width="490.2" height="490.2" id="like" y="4318"><path d="M490.1 234.464c0-37.6-30.6-68.3-68.3-68.3H316.2v-76.1c0-32.2-9.4-55.4-28-69-29.4-21.6-69.8-9.3-71.5-8.7-5.1 1.6-8.6 6.3-8.6 11.7v85.5c0 67.3-78.1 90.2-81.4 91.2-1 .3-1.9.6-2.7 1.1-5.8-11.6-17.8-19.6-31.6-19.6H35.2c-19.4 0-35.2 15.8-35.2 35.2v207.9c0 19.4 15.8 35.2 35.2 35.2h33.1c6.8 0 12.3-5.5 12.3-12.3s-5.6-12.2-12.3-12.2H35.2c-5.9 0-10.7-4.8-10.7-10.7v-207.9c0-5.9 4.8-10.7 10.7-10.7h57.3c5.9 0 10.7 4.8 10.7 10.7v196.1c0 37.6 30.6 68.3 68.3 68.3h209.2c46.4 0 75.9-24.3 81.1-66.3l28.2-177c.1-.6.2-1.3.2-1.9v-2.2h-.1zm-24.5 1.1l-28.1 176.5c-3.7 30-22.8 45.3-56.8 45.3H171.5c-24.1 0-43.8-19.6-43.8-43.8v-189.1c1.8.4 3.7.3 5.6-.2 4.1-1.1 99.3-28.7 99.3-114.8v-75.6c10.4-1.6 28.2-2.5 41.1 6.9 11.9 8.8 18 25.3 18 49.3v88.4c0 6.8 5.5 12.3 12.3 12.3h117.9c24.1 0 43.8 19.6 43.8 43.8v1h-.1z"></path></svg><svg viewBox="0 0 451 451" width="451" height="451" id="magnifying-glass" y="4809"><path d="M447.05 428l-109.6-109.6c29.4-33.8 47.2-77.9 47.2-126.1C384.65 86.2 298.35 0 192.35 0 86.25 0 .05 86.3.05 192.3s86.3 192.3 192.3 192.3c48.2 0 92.3-17.8 126.1-47.2L428.05 447c2.6 2.6 6.1 4 9.5 4s6.9-1.3 9.5-4c5.2-5.2 5.2-13.8 0-19zM26.95 192.3c0-91.2 74.2-165.3 165.3-165.3 91.2 0 165.3 74.2 165.3 165.3s-74.1 165.4-165.3 165.4c-91.1 0-165.3-74.2-165.3-165.4z"></path></svg><svg viewBox="0 0 483.3 483.3" width="483.3" height="483.3" id="mail" y="5260"><path d="M424.3 57.75H59.1c-32.6 0-59.1 26.5-59.1 59.1v249.6c0 32.6 26.5 59.1 59.1 59.1h365.1c32.6 0 59.1-26.5 59.1-59.1v-249.5c.1-32.6-26.4-59.2-59-59.2zm32.1 308.7c0 17.7-14.4 32.1-32.1 32.1H59.1c-17.7 0-32.1-14.4-32.1-32.1v-249.5c0-17.7 14.4-32.1 32.1-32.1h365.1c17.7 0 32.1 14.4 32.1 32.1v249.5h.1z"></path><path d="M304.8 238.55l118.2-106c5.5-5 6-13.5 1-19.1-5-5.5-13.5-6-19.1-1l-163 146.3-31.8-28.4c-.1-.1-.2-.2-.2-.3-.7-.7-1.4-1.3-2.2-1.9L78.3 112.35c-5.6-5-14.1-4.5-19.1 1.1-5 5.6-4.5 14.1 1.1 19.1l119.6 106.9-119.1 111.5c-5.4 5.1-5.7 13.6-.6 19.1 2.7 2.8 6.3 4.3 9.9 4.3 3.3 0 6.6-1.2 9.2-3.6l120.9-113.1 32.8 29.3c2.6 2.3 5.8 3.4 9 3.4s6.5-1.2 9-3.5l33.7-30.2 120.2 114.2c2.6 2.5 6 3.7 9.3 3.7 3.6 0 7.1-1.4 9.8-4.2 5.1-5.4 4.9-14-.5-19.1l-118.7-112.7z"></path></svg><svg width="459" height="459" viewBox="0 0 459 459" id="menu" y="5744"><path d="M0 382.5h459v-51H0v51zM0 255h459v-51H0v51zM0 76.5v51h459v-51H0z"></path></svg><svg width="401.998" height="401.998" viewBox="0 0 401.998 401.998" id="padlock" y="6203"><path d="M357.45 190.721c-5.331-5.33-11.8-7.993-19.417-7.993h-9.131v-54.821c0-35.022-12.559-65.093-37.685-90.218C266.093 12.563 236.025 0 200.998 0c-35.026 0-65.1 12.563-90.222 37.688-25.126 25.126-37.685 55.196-37.685 90.219v54.821h-9.135c-7.611 0-14.084 2.663-19.414 7.993-5.33 5.326-7.994 11.799-7.994 19.417V374.59c0 7.611 2.665 14.086 7.994 19.417 5.33 5.325 11.803 7.991 19.414 7.991H338.04c7.617 0 14.085-2.663 19.417-7.991 5.325-5.331 7.994-11.806 7.994-19.417V210.135c.004-7.612-2.669-14.084-8.001-19.414zm-83.363-7.993H127.909v-54.821c0-20.175 7.139-37.402 21.414-51.675 14.277-14.275 31.501-21.411 51.678-21.411 20.179 0 37.399 7.135 51.677 21.411 14.271 14.272 21.409 31.5 21.409 51.675v54.821z"></path></svg><svg viewBox="0 0 473.806 473.806" width="473.806" height="473.806" id="phone-call" y="6605"><path d="M374.456 293.506c-9.7-10.1-21.4-15.5-33.8-15.5-12.3 0-24.1 5.3-34.2 15.4l-31.6 31.5c-2.6-1.4-5.2-2.7-7.7-4-3.6-1.8-7-3.5-9.9-5.3-29.6-18.8-56.5-43.3-82.3-75-12.5-15.8-20.9-29.1-27-42.6 8.2-7.5 15.8-15.3 23.2-22.8 2.8-2.8 5.6-5.7 8.4-8.5 21-21 21-48.2 0-69.2l-27.3-27.3c-3.1-3.1-6.3-6.3-9.3-9.5-6-6.2-12.3-12.6-18.8-18.6-9.7-9.6-21.3-14.7-33.5-14.7s-24 5.1-34 14.7l-.2.2-34 34.3c-12.8 12.8-20.1 28.4-21.7 46.5-2.4 29.2 6.2 56.4 12.8 74.2 16.2 43.7 40.4 84.2 76.5 127.6 43.8 52.3 96.5 93.6 156.7 122.7 23 10.9 53.7 23.8 88 26 2.1.1 4.3.2 6.3.2 23.1 0 42.5-8.3 57.7-24.8.1-.2.3-.3.4-.5 5.2-6.3 11.2-12 17.5-18.1 4.3-4.1 8.7-8.4 13-12.9 9.9-10.3 15.1-22.3 15.1-34.6 0-12.4-5.3-24.3-15.4-34.3l-54.9-55.1zm35.8 105.3c-.1 0-.1.1 0 0-3.9 4.2-7.9 8-12.2 12.2-6.5 6.2-13.1 12.7-19.3 20-10.1 10.8-22 15.9-37.6 15.9-1.5 0-3.1 0-4.6-.1-29.7-1.9-57.3-13.5-78-23.4-56.6-27.4-106.3-66.3-147.6-115.6-34.1-41.1-56.9-79.1-72-119.9-9.3-24.9-12.7-44.3-11.2-62.6 1-11.7 5.5-21.4 13.8-29.7l34.1-34.1c4.9-4.6 10.1-7.1 15.2-7.1 6.3 0 11.4 3.8 14.6 7l.3.3c6.1 5.7 11.9 11.6 18 17.9 3.1 3.2 6.3 6.4 9.5 9.7l27.3 27.3c10.6 10.6 10.6 20.4 0 31-2.9 2.9-5.7 5.8-8.6 8.6-8.4 8.6-16.4 16.6-25.1 24.4-.2.2-.4.3-.5.5-8.6 8.6-7 17-5.2 22.7l.3.9c7.1 17.2 17.1 33.4 32.3 52.7l.1.1c27.6 34 56.7 60.5 88.8 80.8 4.1 2.6 8.3 4.7 12.3 6.7 3.6 1.8 7 3.5 9.9 5.3.4.2.8.5 1.2.7 3.4 1.7 6.6 2.5 9.9 2.5 8.3 0 13.5-5.2 15.2-6.9l34.2-34.2c3.4-3.4 8.8-7.5 15.1-7.5 6.2 0 11.3 3.9 14.4 7.3l.2.2 55.1 55.1c10.3 10.2 10.3 20.7.1 31.3zm-154.2-286.1c26.2 4.4 50 16.8 69 35.8s31.3 42.8 35.8 69c1.1 6.6 6.8 11.2 13.3 11.2.8 0 1.5-.1 2.3-.2 7.4-1.2 12.3-8.2 11.1-15.6-5.4-31.7-20.4-60.6-43.3-83.5s-51.8-37.9-83.5-43.3c-7.4-1.2-14.3 3.7-15.6 11s3.5 14.4 10.9 15.6zm217.2 96.3c-8.9-52.2-33.5-99.7-71.3-137.5s-85.3-62.4-137.5-71.3c-7.3-1.3-14.2 3.7-15.5 11-1.2 7.4 3.7 14.3 11.1 15.6 46.6 7.9 89.1 30 122.9 63.7 33.8 33.8 55.8 76.3 63.7 122.9 1.1 6.6 6.8 11.2 13.3 11.2.8 0 1.5-.1 2.3-.2 7.3-1.1 12.3-8.1 11-15.4z"></path></svg><svg viewBox="0 0 477 477" width="477" height="477" id="placeholder" y="7079"><path d="M238.4 0C133 0 47.2 85.8 47.2 191.2c0 12 1.1 24.1 3.4 35.9.1.7.5 2.8 1.3 6.4 2.9 12.9 7.2 25.6 12.8 37.7 20.6 48.5 65.9 123 165.3 202.8 2.5 2 5.5 3 8.5 3s6-1 8.5-3c99.3-79.8 144.7-154.3 165.3-202.8 5.6-12.1 9.9-24.7 12.8-37.7.8-3.6 1.2-5.7 1.3-6.4 2.2-11.8 3.4-23.9 3.4-35.9C429.6 85.8 343.8 0 238.4 0zm161.2 222.4c0 .2-.1.4-.1.6-.1.5-.4 2-.9 4.3v.2c-2.5 11.2-6.2 22.1-11.1 32.6-.1.1-.1.3-.2.4-18.7 44.3-59.7 111.9-148.9 185.6-89.2-73.7-130.2-141.3-148.9-185.6-.1-.1-.1-.3-.2-.4-4.8-10.4-8.5-21.4-11.1-32.6v-.2c-.6-2.3-.8-3.8-.9-4.3 0-.2-.1-.4-.1-.7-2-10.3-3-20.7-3-31.2 0-90.5 73.7-164.2 164.2-164.2s164.2 73.7 164.2 164.2c0 10.6-1 21.1-3 31.3z"></path><path d="M238.4 71.9c-66.9 0-121.4 54.5-121.4 121.4s54.5 121.4 121.4 121.4 121.4-54.5 121.4-121.4S305.3 71.9 238.4 71.9zm0 215.8c-52.1 0-94.4-42.4-94.4-94.4s42.4-94.4 94.4-94.4 94.4 42.4 94.4 94.4-42.3 94.4-94.4 94.4z"></path></svg><svg viewBox="0 0 481.6 481.6" width="481.6" height="481.6" id="share" y="7556"><path d="M381.6 309.4c-27.7 0-52.4 13.2-68.2 33.6l-132.3-73.9c3.1-8.9 4.8-18.5 4.8-28.4 0-10-1.7-19.5-4.9-28.5l132.2-73.8c15.7 20.5 40.5 33.8 68.3 33.8 47.4 0 86.1-38.6 86.1-86.1S429 0 381.5 0s-86.1 38.6-86.1 86.1c0 10 1.7 19.6 4.9 28.5l-132.1 73.8c-15.7-20.6-40.5-33.8-68.3-33.8-47.4 0-86.1 38.6-86.1 86.1s38.7 86.1 86.2 86.1c27.8 0 52.6-13.3 68.4-33.9l132.2 73.9c-3.2 9-5 18.7-5 28.7 0 47.4 38.6 86.1 86.1 86.1s86.1-38.6 86.1-86.1-38.7-86.1-86.2-86.1zm0-282.3c32.6 0 59.1 26.5 59.1 59.1s-26.5 59.1-59.1 59.1-59.1-26.5-59.1-59.1 26.6-59.1 59.1-59.1zM100 299.8c-32.6 0-59.1-26.5-59.1-59.1s26.5-59.1 59.1-59.1 59.1 26.5 59.1 59.1-26.6 59.1-59.1 59.1zm281.6 154.7c-32.6 0-59.1-26.5-59.1-59.1s26.5-59.1 59.1-59.1 59.1 26.5 59.1 59.1-26.5 59.1-59.1 59.1z"></path></svg><svg viewBox="0 0 512 512" width="512" height="512" id="soc-facebook" y="8038"><path d="M134.941 272.691h56.123v231.051a8.256 8.256 0 0 0 8.258 8.258h95.159a8.256 8.256 0 0 0 8.258-8.258V273.78h64.519a8.26 8.26 0 0 0 8.204-7.315l9.799-85.061a8.259 8.259 0 0 0-8.202-9.203h-74.316V118.88c0-16.073 8.654-24.224 25.726-24.224h48.59a8.258 8.258 0 0 0 8.258-8.258V8.319a8.256 8.256 0 0 0-8.258-8.258h-66.965A65.863 65.863 0 0 0 307.027 0c-11.619 0-52.006 2.281-83.909 31.63-35.348 32.524-30.434 71.465-29.26 78.217v62.352H134.94a8.256 8.256 0 0 0-8.258 8.258v83.975a8.26 8.26 0 0 0 8.259 8.259z"></path></svg><svg width="96.669" height="96.669" viewBox="0 0 96.669 96.669" id="soc-google" y="8550"><path d="M50.91 55.189l-4.533-3.522c-1.38-1.144-3.27-2.656-3.27-5.422 0-2.778 1.889-4.544 3.527-6.18 5.279-4.157 10.557-8.581 10.557-17.903 0-9.586-6.031-14.629-8.923-17.022h7.795L64.244 0H39.459C32.658 0 22.856 1.608 15.68 7.533c-5.408 4.666-8.046 11.099-8.046 16.892 0 9.831 7.548 19.798 20.88 19.798 1.259 0 2.636-.124 4.022-.252-.623 1.515-1.252 2.777-1.252 4.917 0 3.905 2.006 6.299 3.774 8.567-5.663.39-16.237 1.018-24.033 5.809-7.424 4.415-9.684 10.84-9.684 15.377 0 9.334 8.8 18.028 27.045 18.028 21.636 0 33.089-11.971 33.089-23.823.002-8.707-5.028-12.992-10.565-17.657zM34.431 40.691c-10.824 0-15.727-13.992-15.727-22.434 0-3.288.623-6.682 2.763-9.333C23.486 6.4 27 4.762 30.281 4.762c10.434 0 15.846 14.118 15.846 23.197 0 2.271-.251 6.296-3.144 9.207-2.023 2.021-5.409 3.525-8.552 3.525zm.124 50.696c-13.46 0-22.139-6.438-22.139-15.392 0-8.949 8.048-11.978 10.816-12.979 5.281-1.777 12.076-2.024 13.21-2.024 1.258 0 1.887 0 2.889.126 9.568 6.81 13.721 10.203 13.721 16.65.001 7.805-6.417 13.619-18.497 13.619zm48.124-50.888V27.894h-6.224v12.605H63.869v6.294h12.586v12.684h6.224V46.793h12.649v-6.294z"></path></svg><svg width="430.117" height="430.117" viewBox="0 0 430.117 430.117" id="soc-in" y="8647"><path d="M430.117 261.543V420.56h-92.188V272.193c0-37.271-13.334-62.707-46.703-62.707-25.473 0-40.632 17.142-47.301 33.724-2.432 5.928-3.058 14.179-3.058 22.477V420.56h-92.219s1.242-251.285 0-277.32h92.21v39.309c-.187.294-.43.611-.606.896h.606v-.896c12.251-18.869 34.13-45.824 83.102-45.824 60.673-.001 106.157 39.636 106.157 124.818zM52.183 9.558C20.635 9.558 0 30.251 0 57.463c0 26.619 20.038 47.94 50.959 47.94h.616c32.159 0 52.159-21.317 52.159-47.94-.606-27.212-20-47.905-51.551-47.905zM5.477 420.56h92.184V143.24H5.477v277.32z"></path></svg><svg viewBox="0 0 291.319 291.319" width="291.319" height="291.319" id="soc-instagram" y="9078"><path d="M145.659 0c80.44 0 145.66 65.219 145.66 145.66S226.1 291.319 145.66 291.319 0 226.1 0 145.66 65.21 0 145.659 0z"></path><path d="M195.93 63.708H95.38c-17.47 0-31.672 14.211-31.672 31.672v100.56c0 17.47 14.211 31.672 31.672 31.672h100.56c17.47 0 31.672-14.211 31.672-31.672V95.38c-.001-17.461-14.212-31.672-31.682-31.672zm9.978 18.326l3.587-.009v27.202l-27.402.091-.091-27.202 23.906-.082zm-60.248 36.205c22.732 0 27.42 21.339 27.42 27.429 0 15.103-12.308 27.411-27.42 27.411-15.121 0-27.42-12.308-27.42-27.411-.01-6.09 4.688-27.429 27.42-27.429zm63.99 75.716c0 8.658-7.037 15.704-15.713 15.704H97.073c-8.667 0-15.713-7.037-15.713-15.704v-66.539h22.759c-2.112 5.198-3.305 12.299-3.305 18.253 0 24.708 20.101 44.818 44.818 44.818s44.808-20.11 44.808-44.818c0-5.954-1.193-13.055-3.296-18.253h22.486v66.539h.02z"></path></svg><svg width="95.481" height="95.481" viewBox="0 0 95.481 95.481" id="soc-ok" y="9370"><path d="M43.041 67.254c-7.402-.772-14.076-2.595-19.79-7.064-.709-.556-1.441-1.092-2.088-1.713-2.501-2.402-2.753-5.153-.774-7.988 1.693-2.426 4.535-3.075 7.489-1.682.572.27 1.117.607 1.639.969 10.649 7.317 25.278 7.519 35.967.329 1.059-.812 2.191-1.474 3.503-1.812 2.551-.655 4.93.282 6.299 2.514 1.564 2.549 1.544 5.037-.383 7.016-2.956 3.034-6.511 5.229-10.461 6.761-3.735 1.448-7.826 2.177-11.875 2.661.611.665.899.992 1.281 1.376 5.498 5.524 11.02 11.025 16.5 16.566 1.867 1.888 2.257 4.229 1.229 6.425-1.124 2.4-3.64 3.979-6.107 3.81-1.563-.108-2.782-.886-3.865-1.977-4.149-4.175-8.376-8.273-12.441-12.527-1.183-1.237-1.752-1.003-2.796.071-4.174 4.297-8.416 8.528-12.683 12.735-1.916 1.889-4.196 2.229-6.418 1.15-2.362-1.145-3.865-3.556-3.749-5.979.08-1.639.886-2.891 2.011-4.014 5.441-5.433 10.867-10.88 16.295-16.322.359-.362.694-.746 1.217-1.305z"></path><path d="M47.55 48.329c-13.205-.045-24.033-10.992-23.956-24.218C23.67 10.739 34.505-.037 47.84 0c13.362.036 24.087 10.967 24.02 24.478-.068 13.199-10.971 23.897-24.31 23.851zm12.001-24.186c-.023-6.567-5.253-11.795-11.807-11.801-6.609-.007-11.886 5.316-11.835 11.943.049 6.542 5.324 11.733 11.896 11.709 6.552-.023 11.768-5.285 11.746-11.851z"></path></svg><svg viewBox="0 0 410.155 410.155" width="410.155" height="410.155" id="soc-twitter" y="9466"><path d="M403.632 74.18a162.414 162.414 0 0 1-28.28 9.537 88.177 88.177 0 0 0 23.275-37.067c1.295-4.051-3.105-7.554-6.763-5.385a163.188 163.188 0 0 1-43.235 17.862 11.02 11.02 0 0 1-2.702.336c-2.766 0-5.455-1.027-7.57-2.891-16.156-14.239-36.935-22.081-58.508-22.081-9.335 0-18.76 1.455-28.014 4.325-28.672 8.893-50.795 32.544-57.736 61.724-2.604 10.945-3.309 21.9-2.097 32.56a3.166 3.166 0 0 1-.797 2.481 3.278 3.278 0 0 1-2.753 1.091c-62.762-5.831-119.358-36.068-159.363-85.14-2.04-2.503-5.952-2.196-7.578.593-7.834 13.44-11.974 28.812-11.974 44.454 0 23.972 9.631 46.563 26.36 63.032a79.24 79.24 0 0 1-20.169-7.808c-3.06-1.7-6.825.485-6.868 3.985-.438 35.612 20.412 67.3 51.646 81.569a79.567 79.567 0 0 1-16.786-1.399c-3.446-.658-6.341 2.611-5.271 5.952 10.138 31.651 37.39 54.981 70.002 60.278-27.066 18.169-58.585 27.753-91.39 27.753l-10.227-.006c-3.151 0-5.816 2.054-6.619 5.106-.791 3.006.666 6.177 3.353 7.74 36.966 21.513 79.131 32.883 121.955 32.883 37.485 0 72.549-7.439 104.219-22.109 29.033-13.449 54.689-32.674 76.255-57.141 20.09-22.792 35.8-49.103 46.692-78.201 10.383-27.737 15.871-57.333 15.871-85.589v-1.346c-.001-4.537 2.051-8.806 5.631-11.712a174.776 174.776 0 0 0 35.16-38.591c2.573-3.849-1.485-8.673-5.719-6.795z"></path></svg><svg viewBox="0 0 512 512" width="512" height="512" id="soc-vk" y="9877"><path d="M440.649 295.361c16.984 16.582 34.909 32.182 50.142 50.436 6.729 8.112 13.099 16.482 17.973 25.896 6.906 13.382.651 28.108-11.348 28.907l-74.59-.034c-19.238 1.596-34.585-6.148-47.489-19.302-10.327-10.519-19.891-21.714-29.821-32.588-4.071-4.444-8.332-8.626-13.422-11.932-10.182-6.609-19.021-4.586-24.84 6.034-5.926 10.802-7.271 22.762-7.853 34.8-.799 17.564-6.108 22.182-23.751 22.986-37.705 1.778-73.489-3.926-106.732-22.947-29.308-16.768-52.034-40.441-71.816-67.24-38.513-52.183-68.008-109.525-94.516-168.473-5.967-13.281-1.603-20.41 13.051-20.663 24.333-.473 48.663-.439 73.025-.034 9.89.145 16.437 5.817 20.256 15.16 13.165 32.371 29.274 63.169 49.494 91.716 5.385 7.6 10.876 15.201 18.694 20.55 8.65 5.923 15.236 3.96 19.305-5.676 2.582-6.11 3.713-12.691 4.295-19.234 1.928-22.513 2.182-44.988-1.199-67.422-2.076-14.001-9.962-23.065-23.933-25.714-7.129-1.351-6.068-4.004-2.616-8.073 5.995-7.018 11.634-11.387 22.875-11.387h84.298c13.271 2.619 16.218 8.581 18.035 21.934l.072 93.637c-.145 5.169 2.582 20.51 11.893 23.931 7.452 2.436 12.364-3.526 16.836-8.251 20.183-21.421 34.588-46.737 47.457-72.951 5.711-11.527 10.622-23.497 15.381-35.458 3.526-8.875 9.059-13.242 19.056-13.049l81.132.072c2.406 0 4.84.035 7.17.434 13.671 2.33 17.418 8.211 13.195 21.561-6.653 20.945-19.598 38.4-32.255 55.935-13.53 18.721-28.001 36.802-41.418 55.634-12.328 17.2-11.349 25.868 3.964 40.805z"></path></svg><svg width="64" height="64" viewBox="0 0 64 64" id="soc-youtube" y="10389"><path d="M37.635 41.44c-.542 0-1.088.257-1.635.79v10.999c.547.544 1.093.806 1.635.806.941 0 1.423-.806 1.423-2.434v-7.698c.001-1.632-.482-2.463-1.423-2.463zm11.966 0c-1.093 0-1.642.831-1.642 2.502v1.671h3.274v-1.671c.001-1.671-.546-2.502-1.632-2.502z"></path><path d="M56.396 29.049c-2.055-2.139-4.357-2.148-5.414-2.271-7.556-.54-18.889-.54-18.889-.54h-.025s-11.333 0-18.896.54c-1.054.123-3.352.133-5.409 2.271-1.618 1.632-2.147 5.327-2.147 5.327s-.536 4.343-.536 8.685v4.073c0 4.341.536 8.686.536 8.686s.529 3.695 2.147 5.321c2.057 2.139 4.753 2.072 5.952 2.295 4.324.413 18.365.538 18.365.538s11.347-.016 18.903-.562c1.057-.121 3.359-.133 5.414-2.271 1.619-1.626 2.147-5.321 2.147-5.321s.536-4.345.536-8.686v-4.073c0-4.342-.536-8.685-.536-8.685s-.529-3.695-2.148-5.327zM16.979 56.755h-3.642V35.953H9.486v-3.406H20.9v3.406h-3.92v20.802zm12.912 0h-3.278v-1.969c-1.299 1.489-2.54 2.221-3.742 2.221-1.054 0-1.781-.432-2.112-1.346-.178-.546-.286-1.409-.286-2.683V38.717h3.275v13.28c0 .765 0 1.164.024 1.27.083.507.336.769.771.769.658 0 1.341-.507 2.069-1.533V38.717h3.278v18.038zm12.44-5.409c0 1.663-.11 2.866-.331 3.631-.438 1.344-1.313 2.03-2.613 2.03-1.168 0-2.294-.647-3.387-1.999v1.747h-3.277V32.547H36v7.905c1.056-1.299 2.179-1.956 3.387-1.956 1.299 0 2.174.688 2.613 2.036.221.729.331 1.918.331 3.628v7.186zM54.51 48.33h-6.55v3.199c0 1.671.549 2.506 1.673 2.506.806 0 1.275-.44 1.463-1.311.029-.178.073-.908.073-2.219h3.341v.479c0 1.051-.043 1.776-.071 2.106a4.606 4.606 0 0 1-.766 1.955c-.906 1.312-2.25 1.96-3.963 1.96-1.711 0-3.014-.618-3.96-1.853-.696-.902-1.051-2.326-1.051-4.241v-6.319c0-1.927.318-3.333 1.012-4.249.946-1.234 2.249-1.849 3.922-1.849 1.643 0 2.947.614 3.863 1.849.685.916 1.015 2.322 1.015 4.249v3.738zM23.436 24.434v-9.908L27.848-.026h-3.71l-2.503 9.605L19.03-.026h-3.863c.777 2.268 1.581 4.544 2.356 6.816 1.174 3.411 1.91 5.982 2.244 7.735v9.908h3.669zm8.611.251c1.656 0 2.942-.624 3.858-1.864.692-.91 1.029-2.346 1.029-4.287v-6.387c0-1.945-.337-3.367-1.029-4.289-.917-1.25-2.202-1.87-3.858-1.87-1.654 0-2.943.62-3.854 1.87-.707.922-1.034 2.344-1.034 4.289v6.387c0 1.941.327 3.377 1.034 4.287.911 1.24 2.2 1.864 3.854 1.864zm-1.581-13.199c0-1.686.514-2.529 1.581-2.529 1.062 0 1.573.844 1.573 2.529v7.669c0 1.687-.511 2.53-1.573 2.53-1.067 0-1.581-.844-1.581-2.53v-7.669zm18.522 12.948V6.203H45.68v13.935c-.733 1.034-1.427 1.548-2.088 1.548-.445 0-.708-.265-.777-.773-.042-.109-.042-.51-.042-1.285V6.203h-3.299v14.418c0 1.289.108 2.161.293 2.711.332.92 1.068 1.353 2.133 1.353 1.204 0 2.46-.732 3.781-2.24v1.989h3.307z"></path></svg><svg viewBox="0 0 490.727 490.727" width="490.727" height="490.727" id="star" y="10453"><path d="M453.443 160.214l-119.7-8.6c-2.5-.2-4.7-1.7-5.6-4.1l-45.6-111c-6.3-15.3-20.5-24.8-37.1-24.8s-30.7 9.5-37.1 24.9l-45.7 111.1c-1 2.3-3.1 3.9-5.6 4.1l-119.5 8.6c-16.2.9-30 11.5-35.3 27.1-5.4 15.8-.9 32.4 11.9 43.3l92.5 76.4c1.9 1.6 2.8 4.2 2.2 6.6l-28.2 115.4c-3.3 12-1 24.4 6.3 34.1 7.5 9.8 19.2 15.7 31.5 15.7 7.6 0 15-2.3 21.1-6.4l101.1-62.9c2.1-1.3 4.8-1.3 6.9 0l102.1 62.7c6.4 4.3 13.8 6.6 21.3 6.6 11.5 0 22.9-5.5 30.3-14.8 7.7-9.6 10.5-22.1 7.7-34.6l-28.3-115.7c-.6-2.5.3-5.1 2.2-6.7l93.9-76.6c12.6-10.8 17.1-27.4 11.8-43.2-5.2-15.6-19.1-26.3-35.1-27.2zm7.7 51.5l-93.7 76.5c-9.2 7.5-13.4 19.9-10.5 31.5l28.3 115.5c1.5 6.8-1.2 11.5-3 13.7-2.8 3.5-7 5.7-11.2 5.7-2.6 0-5.2-.8-8-2.7l-102.5-63c-4.9-3-10.5-4.6-16.3-4.6s-11.5 1.6-16.4 4.7l-101.5 63.1c-6.5 4.3-15.2 2.4-19.8-3.6-1.9-2.5-3.9-6.8-2.1-13.1l28.3-115.8c2.8-11.5-1.3-23.8-10.4-31.3l-92.3-76.3c-7.3-6.3-5.3-14.4-4.5-16.7s4.1-10 13.7-10.5l119.7-8.6c11.8-.9 22-8.2 26.5-19.2l45.7-111.1c3.7-9 12-9.7 14.4-9.7 2.4 0 10.7.7 14.4 9.7l45.7 111.1c4.5 11 14.7 18.3 26.5 19.2l119.9 8.7c9.4.5 12.7 8.2 13.5 10.5.6 2.1 2.6 10.2-4.4 16.3z"></path></svg><svg id="think-arrow-right" viewBox="0 0 69 24.2" width="69" height="24.2" y="10944"><style>.st0{fill:none;stroke:#228fc7;stroke-width:2;stroke-linecap:round;stroke-linejoin:round;stroke-miterlimit:10}.st1{stroke-linecap:square}.st1,.st2{fill:none;stroke:#228fc7;stroke-width:2;stroke-miterlimit:10}</style><circle class="st0" cx="-422.6" cy="-142.8" r="6"></circle><path class="st0" d="M-418.6-101.5c-7.5 0-13.5-6.1-13.5-13.5 0-7.5 6.1-13.5 13.5-13.5"></path><path class="st0" d="M-428-124.4c-.2-1.4-.3-2.7-.3-4.2 0-3.3.6-6.5 1.6-9.5m21.3 36.6c0 2.4-1.9 4.3-4.3 4.3h-4.6c-2.4 0-4.3-1.9-4.3-4.3v-27.1c0-2.4 1.9-4.3 4.3-4.3h4.6c2.4 0 4.3 1.9 4.3 4.3v27.1zm-12.4-44.2c0-19.9 16.1-36 36-36m-42.8 33.4c1.3-22.6 20-40.4 42.9-40.4"></path><circle class="st0" cx="-340.9" cy="-142.8" r="6"></circle><path class="st0" d="M-345-101.5c7.5 0 13.5-6.1 13.5-13.5 0-7.5-6.1-13.5-13.5-13.5"></path><path class="st0" d="M-335.6-124.4c.2-1.4.3-2.7.3-4.2 0-3.3-.6-6.5-1.6-9.5m-21.2 36.6c0 2.4 1.9 4.3 4.3 4.3h4.6c2.4 0 4.3-1.9 4.3-4.3v-27.1c0-2.4-1.9-4.3-4.3-4.3h-4.6c-2.4 0-4.3 1.9-4.3 4.3v27.1zm12.4-44.2c0-19.9-16.1-36-36-36m42.8 33.4c-1.3-22.6-20-40.4-42.9-40.4"></path><path class="st0" d="M-345-101.5v7.5c0 2.4-1.9 4.3-4.3 4.3h-30c-2.4 0-4.3-1.9-4.3-4.3s1.9-4.3 4.3-4.3h6.4c2.4 0 4.3 1.9 4.3 4.3s-1.9 4.3-4.3 4.3m118.4-15.5V-83h14.3v-13.8m43.2-8.4V-83h-14.3v-13.8m-14.4-57.4c8.5 0 16.3 2.3 22.5 6m33.6 11.2c0 5.9-4.8 10.7-10.7 10.7m-62.9-12.8c0 4-3.2 7.2-7.2 7.2s-7.2-3.2-7.2-7.2"></path><path class="st0" d="M-222-154.2c-1.1-1.5-1.8-3.3-1.8-5.3 0-4.9 4-8.8 8.8-8.8 4.9 0 8.8 4 8.8 8.8 0 3.5-2 6.5-5 7.9"></path><path class="st0" d="M-263.9-117.6h-14.6c-1.3 0-2.4-1.1-2.4-2.4v-12.5c0-1.3 1.1-2.4 2.4-2.4h8.7v-.2c2-6.1 6.1-11.5 11.6-15.8v-16.4l12.4 9.5c6.1-2.3 12.9-3.6 20.1-3.6h2.2m12.4-34.1v10.4m0 6.3v5m-7.7-14v14m-35.8 74.5c-7.3-4.6-12.7-10.9-15.2-18.1m58.5 24.2c-4.5 1.2-9.4 1.8-14.4 1.8-5.1 0-9.9-.6-14.5-1.8m34.3-64.6c15.2 5.7 25.7 17.6 25.7 31.5 0 10.9-6.5 20.7-16.7 27.1M-273.5-83h95.6M-22-141.5c0 3.6-2.9 6.5-6.5 6.5H-44c-3.6 0-6.5-2.9-6.5-6.5s2.9-6.5 6.5-6.5h15.5c3.6 0 6.5 2.9 6.5 6.5zm-4.4 38.7c0 3.6-2.9 6.5-6.5 6.5H-44c-3.6 0-6.5-2.9-6.5-6.5s2.9-6.5 6.5-6.5h11.1c3.6.1 6.5 3 6.5 6.5z"></path><path class="st0" d="M-22-115.7c0 3.6-2.9 6.5-6.5 6.5h-17.7c-3.6 0-6.5-2.9-6.5-6.5s2.9-6.5 6.5-6.5h17.7c3.6.1 6.5 2.9 6.5 6.5z"></path><path class="st0" d="M-17.6-128.6c0 3.6-2.9 6.5-6.5 6.5h-24.4c-3.6 0-6.5-2.9-6.5-6.5s2.9-6.5 6.5-6.5H-24c3.5 0 6.4 2.9 6.4 6.5zM-44-148h-14.6s9.6-20.3 9.6-28.4c0-8.1-3.7-8.5-7-8.5s-4.8 10-9.6 17S-79.3-148-90.7-148h-32.1m6.6 0h24.6v54.5h-24.6zm-6.6 54.5h31.2m-13.7-10v4.6m6.7-4.6v4.6m12.5.3c3.1 0 5.9.8 8.4 2.3h44.9M-336-237.7c2.4 0 4.3-1.9 4.3-4.3v-59.6c0-2.4-1.9-4.3-4.3-4.3h-91.6c-2.4 0-4.3 1.9-4.3 4.3v59.6c0 2.4 1.9 4.3 4.3 4.3h37.8m-32.4-68.1v68.1m78.3-68.1v47.2"></path><circle class="st0" cx="-338" cy="-271.8" r="2.5"></circle><path class="st0" d="M-365.6-247v-8.7c0-2.1 1.7-3.8 3.8-3.8 2.1 0 3.8 1.7 3.8 3.8v10.9m0 0v-8.7c0-2.1 1.7-3.8 3.8-3.8 2.1 0 3.8 1.7 3.8 3.8v8.7m.1 0v-4.2c0-2.1 1.7-3.8 3.8-3.8 2.1 0 3.8 1.7 3.8 3.8v10.9c0 5.2-1.1 10.1-3.2 14.5v10.6m-19.7-36.2v-24.3c0-2.1-1.7-3.8-3.8-3.8-2.1 0-3.8 1.7-3.8 3.8v34.4m-1.8 33.8v-7.6h33.4v7.6"></path><path class="st0" d="M-370.7-212.9v-7.8c-5.3-1.7-9.1-6-10.9-11.2l-4.7-16.3c-.6-1.8.3-3.7 2.1-4.3 1.8-.6 3.7.3 4.3 2.1 0 0 .9 3 3.5 9.2.5 1.2 1.8 2.1 3.2 2.1m-4.4-34.2c0-4.5 3.7-8.2 8.2-8.2 4.5 0 8.2 3.7 8.2 8.2"></path><path class="st0" d="M-378.2-264.5c-4.9-4.9-4.9-12.8 0-17.6 4.9-4.9 12.7-4.9 17.6 0 4.9 4.9 4.9 12.8 0 17.6"></path><path class="st0" d="M-381.2-261.5c-6.5-6.5-6.5-17.1 0-23.6s17.1-6.5 23.6 0c4.8 4.8 6.1 11.7 3.8 17.7"></path><path class="st1" d="M-371.6-633.8c0 .5-.4.9-.9.9H-419c-.5 0-.9-.4-.9-.9v-35c0-.5.4-.9.9-.9h46.5c.5 0 .9.4.9.9v35z"></path><path class="st1" d="M-386.1-655h-5.9v-5.9c0-.5-.4-.9-.9-.9h-5.6c-.5 0-.9.4-.9.9v5.9h-5.9c-.5 0-.9.4-.9.9v5.6c0 .5.4.9.9.9h5.9v5.9c0 .5.4.9.9.9h5.6c.5 0 .9-.4.9-.9v-5.9h5.9c.5 0 .9-.4.9-.9v-5.6c0-.5-.4-.9-.9-.9zm-17.7-14.8v-5c0-1.5 1.2-2.7 2.7-2.7h10.8c1.5 0 2.7 1.2 2.7 2.7v5M-288.1-638.9c0-1.5 1.2-2.7 2.7-2.7h9.8c1.5 0 2.7-1.2 2.7-2.7 0-1.5-1.2-2.7-2.7-2.7h-8.6l-8.6-3.3h-7.9m-10.9-1.5h10.9v17h-10.9"></path><path class="st1" d="M-274.2-641.9l12.6-4.7c1.3-.5 2.7.2 3.1 1.5.5 1.3-.2 2.7-1.5 3.1l-17 9.1c-2.5 1.3-5.5 1.5-8.1.5l-11-4.1h-4.6m-7.4-3.2v1.3m3.9-1.3v1.3m32.5-38c-2.9-2.9-7.7-2.9-10.7 0l-1.7 1.7-1.7-1.7c-2.9-2.9-7.7-2.9-10.7 0-2.9 2.9-2.9 7.7 0 10.7l12.4 12.4 12.4-12.4c2.9-3 2.9-7.7 0-10.7zM-174.2-648.6l-28-14.5 28-14.4 28 14.4z"></path><path class="st1" d="M-158-656.8v23.9h-32.3v-23.9m-7.1-3.6v19.5"></path><g><path class="st1" d="M-45.2-634.3c0 1.7-1.3 3-3 3h-30.3c-1.7 0-3-1.3-3-3V-676c0-1.7 1.3-3 3-3h30.3c1.7 0 3 1.3 3 3v41.7z"></path><path class="st1" d="M-76.5-674h26.3v6.3h-26.3zm0 11.3v6h6m4.1-6v6h6m4.2-6v6h6m-26.3 4.2v6h6m4.1-6v6h6m-16.1 4.2v6h6m4.1-6v6h6m4.2-16.2v16.2h6"></path></g><g><path class="st2" d="M30.9-631.6v-21.5m34.7 0v21.5m-17.3-47.1l-25.1 22.8 4.9 4.9 20.2-18.5L68.5-651l4.9-4.9zM43-632.8v-14.9h10.6v14.9m17.7 1.2H25.2"></path></g><g><path class="st1" d="M-154.3-566.2c-5.2.7-8 3.1-8 6h8"></path><path class="st1" d="M-174-585.7h14.6c.8 0 1.5.4 1.9 1.1l6.2 10.4h6.1v3l-3.4 2.1c-.7.4-1.1 1.1-1.1 1.9v16.8c0 1.3-1.1 2.4-2.4 2.4h-4.4c-1.3 0-2.4-1.1-2.4-2.4v-2.6m-20.9-12.6h12.6v5.3h-12.6zm-12.9-.6c5.2.7 8 3.1 8 6h-8m0 7h38.4"></path><path class="st1" d="M-190.6-574.3l4.2-7h25.8l4.2 7z"></path><path class="st1" d="M-174-585.7h-13.7c-.8 0-1.5.4-1.9 1.1l-6.2 10.4h-6.1v3l3.4 2.1c.7.4 1.1 1.1 1.1 1.9v16.8c0 1.3 1.1 2.4 2.4 2.4h4.4c1.3 0 2.4-1.1 2.4-2.4v-2.6"></path></g><g><path class="st2" d="M-391.1-565.1l2.8 2.7 5-5"></path><path class="st2" d="M-375.9-552v6.7h-43.3v-43.3h43.3v11.2m-43.3-2.9h43.3"></path><path class="st2" d="M-374.8-574.4h-24.7c-1.9 0-3.5 1.6-3.5 3.5v12.4c0 1.9 1.6 3.5 3.5 3.5h1.7v4.2l7.4-4.2h15.5c1.9 0 3.5-1.6 3.5-3.5v-12.4c.1-2-1.5-3.5-3.4-3.5z"></path><circle class="st2" cx="-414.8" cy="-584.5" r=".4"></circle><circle class="st2" cx="-410.7" cy="-584.5" r=".4"></circle><circle class="st2" cx="-406.5" cy="-584.5" r=".4"></circle></g><g><path class="st1" d="M-260.2-545.6c0 .5-.4.9-.9.9h-46.5c-.5 0-.9-.4-.9-.9v-35c0-.5.4-.9.9-.9h46.5c.5 0 .9.4.9.9v35zm-32.3-35.9v-5c0-1.5 1.2-2.7 2.7-2.7h10.8c1.5 0 2.7 1.2 2.7 2.7v5"></path><path class="st1" d="M-288.5-563.3h-19.1m19.1-2.8h8.2v5.6h-8.2zm28.3 2.8h-20.1"></path></g><g><path class="st2" d="M-44.6-547v-22"></path><circle class="st2" cx="-44.6" cy="-564.9" r="9.9"></circle><path class="st2" d="M-84-547v-18.2m29.4 0v18.2m-19.2-1v-12.6h9v12.6m25.3 1h-49.3m36.7-24.3l-17.2-15.6-21.2 19.4 4.1 4.1 17.1-15.7 14.6 13.3m10.1 6.6l-4.6-4.6m4.6.3l4.7-4.6"></path></g><g><path class="st2" d="M64-566.9c-11.1 0-20.4-7.4-23.3-17.6m21.4 17.6v3.6c0 7.6-6.2 13.8-13.8 13.8-7.6 0-13.8-6.2-13.8-13.8v-4.4c0-5.5 3.2-10.2 7.8-12.4m11.4 35.8c0 1.1-.9 2-2 2h-4.2c-1.1 0-2-.9-2-2s.9-2 2-2h4.2c1.1 0 2 .9 2 2zm12.9-27.4h3c1.3 0 2.3 1 2.3 2.3v6.6c0 1.3-1 2.3-2.3 2.3h-3"></path><path class="st2" d="M29.9-571.7h-3c-1.3 0-2.3 1-2.3 2.3v6.6c0 1.3 1 2.3 2.3 2.3h3v-14c0-9.4 7.7-17.1 17.1-17.1h2.6c9.4 0 17.1 7.6 17.1 17.1v13.8c0 8-5.5 14.7-12.9 16.6"></path></g><g><path class="st0" d="M-356-.7l-7.9-7.8-21.8 21.8-11.8-11.7-7.8 7.8 19.6 19.6 7.8-7.8z"></path><circle class="st0" cx="-380.7" cy="10.2" r="47.3"></circle><path class="st0" d="M-380.7-31.5v4.2m0 75.1V52m41.8-41.8h-4.2m-75.1 0h-4.2"></path></g><g><path class="st0" d="M-200.5-13.8h23.1l-23.1-23z"></path><path class="st0" d="M-200.5-36.9h-53.2v98.2h76.3v-75.1m-63.4 0h27.2m-27.3 13h50.6m-50.6 13h50.6m-50.6 13h50.6m-50.6 13.1h50.6"></path></g><g><path class="st2" d="M56 .7l11.6 11.6L56 23.5M0 12.3h67.6"></path></g></svg></svg>